<svg version="1.1" width="328" height="328" viewBox="0 0 328 328"><rect x="0" y="0" width="328" height="328" fill="#FFFFAB" /><rect x="0" y="0" width="8" height="8" fill="#ABABFF" /><rect x="8" y="0" width="8" height="8" fill="#ABABFF" /><rect x="16" y="0" width="8" height="8" fill="#ABABFF" /><rect x="24" y="0" width="8" height="8" fill="#ABABFF" /><rect x="32" y="0" width="8" height="8" fill="#ABABFF" /><rect x="40" y="0" width="8" height="8" fill="#ABABFF" /><rect x="48" y="0" width="8" height="8" fill="#ABABFF" /><rect x="72" y="0" width="8" height="8" fill="#ABABFF" /><rect x="80" y="0" width="8" height="8" fill="#ABABFF" /><rect x="104" y="0" width="8" height="8" fill="#ABABFF" /><rect x="112" y="0" width="8" height="8" fill="#ABABFF" /><rect x="120" y="0" width="8" height="8" fill="#ABABFF" /><rect x="136" y="0" width="8" height="8" fill="#ABABFF" /><rect x="160" y="0" width="8" height="8" fill="#ABABFF" /><rect x="184" y="0" width="8" height="8" fill="#ABABFF" /><rect x="192" y="0" width="8" height="8" fill="#ABABFF" /><rect x="200" y="0" width="8" height="8" fill="#ABABFF" /><rect x="208" y="0" width="8" height="8" fill="#ABABFF" /><rect x="224" y="0" width="8" height="8" fill="#ABABFF" /><rect x="232" y="0" width="8" height="8" fill="#ABABFF" /><rect x="240" y="0" width="8" height="8" fill="#ABABFF" /><rect x="248" y="0" width="8" height="8" fill="#ABABFF" /><rect x="256" y="0" width="8" height="8" fill="#ABABFF" /><rect x="272" y="0" width="8" height="8" fill="#ABABFF" /><rect x="280" y="0" width="8" height="8" fill="#ABABFF" /><rect x="288" y="0" width="8" height="8" fill="#ABABFF" /><rect x="296" y="0" width="8" height="8" fill="#ABABFF" /><rect x="304" y="0" width="8" height="8" fill="#ABABFF" /><rect x="312" y="0" width="8" height="8" fill="#ABABFF" /><rect x="320" y="0" width="8" height="8" fill="#ABABFF" /><rect x="0" y="8" width="8" height="8" fill="#ABABFF" /><rect x="48" y="8" width="8" height="8" fill="#ABABFF" /><rect x="80" y="8" width="8" height="8" fill="#ABABFF" /><rect x="88" y="8" width="8" height="8" fill="#ABABFF" /><rect x="104" y="8" width="8" height="8" fill="#ABABFF" /><rect x="120" y="8" width="8" height="8" fill="#ABABFF" /><rect x="144" y="8" width="8" height="8" fill="#ABABFF" /><rect x="160" y="8" width="8" height="8" fill="#ABABFF" /><rect x="176" y="8" width="8" height="8" fill="#ABABFF" /><rect x="184" y="8" width="8" height="8" fill="#ABABFF" /><rect x="192" y="8" width="8" height="8" fill="#ABABFF" /><rect x="200" y="8" width="8" height="8" fill="#ABABFF" /><rect x="224" y="8" width="8" height="8" fill="#ABABFF" /><rect x="240" y="8" width="8" height="8" fill="#ABABFF" /><rect x="272" y="8" width="8" height="8" fill="#ABABFF" /><rect x="320" y="8" width="8" height="8" fill="#ABABFF" /><rect x="0" y="16" width="8" height="8" fill="#ABABFF" /><rect x="16" y="16" width="8" height="8" fill="#ABABFF" /><rect x="24" y="16" width="8" height="8" fill="#ABABFF" /><rect x="32" y="16" width="8" height="8" fill="#ABABFF" /><rect x="48" y="16" width="8" height="8" fill="#ABABFF" /><rect x="72" y="16" width="8" height="8" fill="#ABABFF" /><rect x="96" y="16" width="8" height="8" fill="#ABABFF" /><rect x="104" y="16" width="8" height="8" fill="#ABABFF" /><rect x="128" y="16" width="8" height="8" fill="#ABABFF" /><rect x="136" y="16" width="8" height="8" fill="#ABABFF" /><rect x="160" y="16" width="8" height="8" fill="#ABABFF" /><rect x="168" y="16" width="8" height="8" fill="#ABABFF" /><rect x="176" y="16" width="8" height="8" fill="#ABABFF" /><rect x="192" y="16" width="8" height="8" fill="#ABABFF" /><rect x="216" y="16" width="8" height="8" fill="#ABABFF" /><rect x="240" y="16" width="8" height="8" fill="#ABABFF" /><rect x="272" y="16" width="8" height="8" fill="#ABABFF" /><rect x="288" y="16" width="8" height="8" fill="#ABABFF" /><rect x="296" y="16" width="8" height="8" fill="#ABABFF" /><rect x="304" y="16" width="8" height="8" fill="#ABABFF" /><rect x="320" y="16" width="8" height="8" fill="#ABABFF" /><rect x="0" y="24" width="8" height="8" fill="#ABABFF" /><rect x="16" y="24" width="8" height="8" fill="#ABABFF" /><rect x="24" y="24" width="8" height="8" fill="#ABABFF" /><rect x="32" y="24" width="8" height="8" fill="#ABABFF" /><rect x="48" y="24" width="8" height="8" fill="#ABABFF" /><rect x="80" y="24" width="8" height="8" fill="#ABABFF" /><rect x="88" y="24" width="8" height="8" fill="#ABABFF" /><rect x="96" y="24" width="8" height="8" fill="#ABABFF" /><rect x="104" y="24" width="8" height="8" fill="#ABABFF" /><rect x="112" y="24" width="8" height="8" fill="#ABABFF" /><rect x="120" y="24" width="8" height="8" fill="#ABABFF" /><rect x="152" y="24" width="8" height="8" fill="#ABABFF" /><rect x="160" y="24" width="8" height="8" fill="#ABABFF" /><rect x="168" y="24" width="8" height="8" fill="#ABABFF" /><rect x="208" y="24" width="8" height="8" fill="#ABABFF" /><rect x="224" y="24" width="8" height="8" fill="#ABABFF" /><rect x="240" y="24" width="8" height="8" fill="#ABABFF" /><rect x="256" y="24" width="8" height="8" fill="#ABABFF" /><rect x="272" y="24" width="8" height="8" fill="#ABABFF" /><rect x="288" y="24" width="8" height="8" fill="#ABABFF" /><rect x="296" y="24" width="8" height="8" fill="#ABABFF" /><rect x="304" y="24" width="8" height="8" fill="#ABABFF" /><rect x="320" y="24" width="8" height="8" fill="#ABABFF" /><rect x="0" y="32" width="8" height="8" fill="#ABABFF" /><rect x="16" y="32" width="8" height="8" fill="#ABABFF" /><rect x="24" y="32" width="8" height="8" fill="#ABABFF" /><rect x="32" y="32" width="8" height="8" fill="#ABABFF" /><rect x="48" y="32" width="8" height="8" fill="#ABABFF" /><rect x="64" y="32" width="8" height="8" fill="#ABABFF" /><rect x="72" y="32" width="8" height="8" fill="#ABABFF" /><rect x="88" y="32" width="8" height="8" fill="#ABABFF" /><rect x="128" y="32" width="8" height="8" fill="#ABABFF" /><rect x="152" y="32" width="8" height="8" fill="#ABABFF" /><rect x="160" y="32" width="8" height="8" fill="#ABABFF" /><rect x="168" y="32" width="8" height="8" fill="#ABABFF" /><rect x="176" y="32" width="8" height="8" fill="#ABABFF" /><rect x="184" y="32" width="8" height="8" fill="#ABABFF" /><rect x="192" y="32" width="8" height="8" fill="#ABABFF" /><rect x="208" y="32" width="8" height="8" fill="#ABABFF" /><rect x="216" y="32" width="8" height="8" fill="#ABABFF" /><rect x="224" y="32" width="8" height="8" fill="#ABABFF" /><rect x="248" y="32" width="8" height="8" fill="#ABABFF" /><rect x="272" y="32" width="8" height="8" fill="#ABABFF" /><rect x="288" y="32" width="8" height="8" fill="#ABABFF" /><rect x="296" y="32" width="8" height="8" fill="#ABABFF" /><rect x="304" y="32" width="8" height="8" fill="#ABABFF" /><rect x="320" y="32" width="8" height="8" fill="#ABABFF" /><rect x="0" y="40" width="8" height="8" fill="#ABABFF" /><rect x="48" y="40" width="8" height="8" fill="#ABABFF" /><rect x="72" y="40" width="8" height="8" fill="#ABABFF" /><rect x="96" y="40" width="8" height="8" fill="#ABABFF" /><rect x="104" y="40" width="8" height="8" fill="#ABABFF" /><rect x="112" y="40" width="8" height="8" fill="#ABABFF" /><rect x="120" y="40" width="8" height="8" fill="#ABABFF" /><rect x="128" y="40" width="8" height="8" fill="#ABABFF" /><rect x="136" y="40" width="8" height="8" fill="#ABABFF" /><rect x="144" y="40" width="8" height="8" fill="#ABABFF" /><rect x="152" y="40" width="8" height="8" fill="#ABABFF" /><rect x="176" y="40" width="8" height="8" fill="#ABABFF" /><rect x="184" y="40" width="8" height="8" fill="#ABABFF" /><rect x="200" y="40" width="8" height="8" fill="#ABABFF" /><rect x="208" y="40" width="8" height="8" fill="#ABABFF" /><rect x="248" y="40" width="8" height="8" fill="#ABABFF" /><rect x="256" y="40" width="8" height="8" fill="#ABABFF" /><rect x="272" y="40" width="8" height="8" fill="#ABABFF" /><rect x="320" y="40" width="8" height="8" fill="#ABABFF" /><rect x="0" y="48" width="8" height="8" fill="#ABABFF" /><rect x="8" y="48" width="8" height="8" fill="#ABABFF" /><rect x="16" y="48" width="8" height="8" fill="#ABABFF" /><rect x="24" y="48" width="8" height="8" fill="#ABABFF" /><rect x="32" y="48" width="8" height="8" fill="#ABABFF" /><rect x="40" y="48" width="8" height="8" fill="#ABABFF" /><rect x="48" y="48" width="8" height="8" fill="#ABABFF" /><rect x="64" y="48" width="8" height="8" fill="#ABABFF" /><rect x="80" y="48" width="8" height="8" fill="#ABABFF" /><rect x="96" y="48" width="8" height="8" fill="#ABABFF" /><rect x="112" y="48" width="8" height="8" fill="#ABABFF" /><rect x="128" y="48" width="8" height="8" fill="#ABABFF" /><rect x="144" y="48" width="8" height="8" fill="#ABABFF" /><rect x="160" y="48" width="8" height="8" fill="#ABABFF" /><rect x="176" y="48" width="8" height="8" fill="#ABABFF" /><rect x="192" y="48" width="8" height="8" fill="#ABABFF" /><rect x="208" y="48" width="8" height="8" fill="#ABABFF" /><rect x="224" y="48" width="8" height="8" fill="#ABABFF" /><rect x="240" y="48" width="8" height="8" fill="#ABABFF" /><rect x="256" y="48" width="8" height="8" fill="#ABABFF" /><rect x="272" y="48" width="8" height="8" fill="#ABABFF" /><rect x="280" y="48" width="8" height="8" fill="#ABABFF" /><rect x="288" y="48" width="8" height="8" fill="#ABABFF" /><rect x="296" y="48" width="8" height="8" fill="#ABABFF" /><rect x="304" y="48" width="8" height="8" fill="#ABABFF" /><rect x="312" y="48" width="8" height="8" fill="#ABABFF" /><rect x="320" y="48" width="8" height="8" fill="#ABABFF" /><rect x="64" y="56" width="8" height="8" fill="#ABABFF" /><rect x="72" y="56" width="8" height="8" fill="#ABABFF" /><rect x="120" y="56" width="8" height="8" fill="#ABABFF" /><rect x="160" y="56" width="8" height="8" fill="#ABABFF" /><rect x="176" y="56" width="8" height="8" fill="#ABABFF" /><rect x="184" y="56" width="8" height="8" fill="#ABABFF" /><rect x="200" y="56" width="8" height="8" fill="#ABABFF" /><rect x="208" y="56" width="8" height="8" fill="#ABABFF" /><rect x="224" y="56" width="8" height="8" fill="#ABABFF" /><rect x="232" y="56" width="8" height="8" fill="#ABABFF" /><rect x="248" y="56" width="8" height="8" fill="#ABABFF" /><rect x="16" y="64" width="8" height="8" fill="#ABABFF" /><rect x="24" y="64" width="8" height="8" fill="#ABABFF" /><rect x="48" y="64" width="8" height="8" fill="#ABABFF" /><rect x="56" y="64" width="8" height="8" fill="#ABABFF" /><rect x="64" y="64" width="8" height="8" fill="#ABABFF" /><rect x="72" y="64" width="8" height="8" fill="#ABABFF" /><rect x="88" y="64" width="8" height="8" fill="#ABABFF" /><rect x="96" y="64" width="8" height="8" fill="#ABABFF" /><rect x="120" y="64" width="8" height="8" fill="#ABABFF" /><rect x="136" y="64" width="8" height="8" fill="#ABABFF" /><rect x="144" y="64" width="8" height="8" fill="#ABABFF" /><rect x="168" y="64" width="8" height="8" fill="#ABABFF" /><rect x="176" y="64" width="8" height="8" fill="#ABABFF" /><rect x="200" y="64" width="8" height="8" fill="#ABABFF" /><rect x="208" y="64" width="8" height="8" fill="#ABABFF" /><rect x="224" y="64" width="8" height="8" fill="#ABABFF" /><rect x="232" y="64" width="8" height="8" fill="#ABABFF" /><rect x="240" y="64" width="8" height="8" fill="#ABABFF" /><rect x="264" y="64" width="8" height="8" fill="#ABABFF" /><rect x="272" y="64" width="8" height="8" fill="#ABABFF" /><rect x="288" y="64" width="8" height="8" fill="#ABABFF" /><rect x="0" y="72" width="8" height="8" fill="#ABABFF" /><rect x="16" y="72" width="8" height="8" fill="#ABABFF" /><rect x="64" y="72" width="8" height="8" fill="#ABABFF" /><rect x="80" y="72" width="8" height="8" fill="#ABABFF" /><rect x="96" y="72" width="8" height="8" fill="#ABABFF" /><rect x="104" y="72" width="8" height="8" fill="#ABABFF" /><rect x="112" y="72" width="8" height="8" fill="#ABABFF" /><rect x="120" y="72" width="8" height="8" fill="#ABABFF" /><rect x="128" y="72" width="8" height="8" fill="#ABABFF" /><rect x="136" y="72" width="8" height="8" fill="#ABABFF" /><rect x="144" y="72" width="8" height="8" fill="#ABABFF" /><rect x="152" y="72" width="8" height="8" fill="#ABABFF" /><rect x="160" y="72" width="8" height="8" fill="#ABABFF" /><rect x="168" y="72" width="8" height="8" fill="#ABABFF" /><rect x="176" y="72" width="8" height="8" fill="#ABABFF" /><rect x="192" y="72" width="8" height="8" fill="#ABABFF" /><rect x="200" y="72" width="8" height="8" fill="#ABABFF" /><rect x="224" y="72" width="8" height="8" fill="#ABABFF" /><rect x="248" y="72" width="8" height="8" fill="#ABABFF" /><rect x="256" y="72" width="8" height="8" fill="#ABABFF" /><rect x="264" y="72" width="8" height="8" fill="#ABABFF" /><rect x="272" y="72" width="8" height="8" fill="#ABABFF" /><rect x="280" y="72" width="8" height="8" fill="#ABABFF" /><rect x="288" y="72" width="8" height="8" fill="#ABABFF" /><rect x="304" y="72" width="8" height="8" fill="#ABABFF" /><rect x="312" y="72" width="8" height="8" fill="#ABABFF" /><rect x="320" y="72" width="8" height="8" fill="#ABABFF" /><rect x="0" y="80" width="8" height="8" fill="#ABABFF" /><rect x="32" y="80" width="8" height="8" fill="#ABABFF" /><rect x="48" y="80" width="8" height="8" fill="#ABABFF" /><rect x="64" y="80" width="8" height="8" fill="#ABABFF" /><rect x="88" y="80" width="8" height="8" fill="#ABABFF" /><rect x="104" y="80" width="8" height="8" fill="#ABABFF" /><rect x="112" y="80" width="8" height="8" fill="#ABABFF" /><rect x="120" y="80" width="8" height="8" fill="#ABABFF" /><rect x="128" y="80" width="8" height="8" fill="#ABABFF" /><rect x="192" y="80" width="8" height="8" fill="#ABABFF" /><rect x="208" y="80" width="8" height="8" fill="#ABABFF" /><rect x="264" y="80" width="8" height="8" fill="#ABABFF" /><rect x="272" y="80" width="8" height="8" fill="#ABABFF" /><rect x="280" y="80" width="8" height="8" fill="#ABABFF" /><rect x="304" y="80" width="8" height="8" fill="#ABABFF" /><rect x="312" y="80" width="8" height="8" fill="#ABABFF" /><rect x="0" y="88" width="8" height="8" fill="#ABABFF" /><rect x="56" y="88" width="8" height="8" fill="#ABABFF" /><rect x="64" y="88" width="8" height="8" fill="#ABABFF" /><rect x="112" y="88" width="8" height="8" fill="#ABABFF" /><rect x="136" y="88" width="8" height="8" fill="#ABABFF" /><rect x="152" y="88" width="8" height="8" fill="#ABABFF" /><rect x="168" y="88" width="8" height="8" fill="#ABABFF" /><rect x="176" y="88" width="8" height="8" fill="#ABABFF" /><rect x="192" y="88" width="8" height="8" fill="#ABABFF" /><rect x="256" y="88" width="8" height="8" fill="#ABABFF" /><rect x="264" y="88" width="8" height="8" fill="#ABABFF" /><rect x="272" y="88" width="8" height="8" fill="#ABABFF" /><rect x="280" y="88" width="8" height="8" fill="#ABABFF" /><rect x="288" y="88" width="8" height="8" fill="#ABABFF" /><rect x="312" y="88" width="8" height="8" fill="#ABABFF" /><rect x="320" y="88" width="8" height="8" fill="#ABABFF" /><rect x="0" y="96" width="8" height="8" fill="#ABABFF" /><rect x="8" y="96" width="8" height="8" fill="#ABABFF" /><rect x="40" y="96" width="8" height="8" fill="#ABABFF" /><rect x="48" y="96" width="8" height="8" fill="#ABABFF" /><rect x="56" y="96" width="8" height="8" fill="#ABABFF" /><rect x="64" y="96" width="8" height="8" fill="#ABABFF" /><rect x="80" y="96" width="8" height="8" fill="#ABABFF" /><rect x="88" y="96" width="8" height="8" fill="#ABABFF" /><rect x="112" y="96" width="8" height="8" fill="#ABABFF" /><rect x="120" y="96" width="8" height="8" fill="#ABABFF" /><rect x="144" y="96" width="8" height="8" fill="#ABABFF" /><rect x="160" y="96" width="8" height="8" fill="#ABABFF" /><rect x="168" y="96" width="8" height="8" fill="#ABABFF" /><rect x="192" y="96" width="8" height="8" fill="#ABABFF" /><rect x="200" y="96" width="8" height="8" fill="#ABABFF" /><rect x="216" y="96" width="8" height="8" fill="#ABABFF" /><rect x="224" y="96" width="8" height="8" fill="#ABABFF" /><rect x="232" y="96" width="8" height="8" fill="#ABABFF" /><rect x="240" y="96" width="8" height="8" fill="#ABABFF" /><rect x="248" y="96" width="8" height="8" fill="#ABABFF" /><rect x="264" y="96" width="8" height="8" fill="#ABABFF" /><rect x="296" y="96" width="8" height="8" fill="#ABABFF" /><rect x="304" y="96" width="8" height="8" fill="#ABABFF" /><rect x="312" y="96" width="8" height="8" fill="#ABABFF" /><rect x="320" y="96" width="8" height="8" fill="#ABABFF" /><rect x="8" y="104" width="8" height="8" fill="#ABABFF" /><rect x="24" y="104" width="8" height="8" fill="#ABABFF" /><rect x="40" y="104" width="8" height="8" fill="#ABABFF" /><rect x="64" y="104" width="8" height="8" fill="#ABABFF" /><rect x="88" y="104" width="8" height="8" fill="#ABABFF" /><rect x="104" y="104" width="8" height="8" fill="#ABABFF" /><rect x="112" y="104" width="8" height="8" fill="#ABABFF" /><rect x="120" y="104" width="8" height="8" fill="#ABABFF" /><rect x="144" y="104" width="8" height="8" fill="#ABABFF" /><rect x="160" y="104" width="8" height="8" fill="#ABABFF" /><rect x="176" y="104" width="8" height="8" fill="#ABABFF" /><rect x="192" y="104" width="8" height="8" fill="#ABABFF" /><rect x="232" y="104" width="8" height="8" fill="#ABABFF" /><rect x="248" y="104" width="8" height="8" fill="#ABABFF" /><rect x="256" y="104" width="8" height="8" fill="#ABABFF" /><rect x="264" y="104" width="8" height="8" fill="#ABABFF" /><rect x="272" y="104" width="8" height="8" fill="#ABABFF" /><rect x="320" y="104" width="8" height="8" fill="#ABABFF" /><rect x="8" y="112" width="8" height="8" fill="#ABABFF" /><rect x="24" y="112" width="8" height="8" fill="#ABABFF" /><rect x="48" y="112" width="8" height="8" fill="#ABABFF" /><rect x="56" y="112" width="8" height="8" fill="#ABABFF" /><rect x="64" y="112" width="8" height="8" fill="#ABABFF" /><rect x="72" y="112" width="8" height="8" fill="#ABABFF" /><rect x="80" y="112" width="8" height="8" fill="#ABABFF" /><rect x="96" y="112" width="8" height="8" fill="#ABABFF" /><rect x="104" y="112" width="8" height="8" fill="#ABABFF" /><rect x="112" y="112" width="8" height="8" fill="#ABABFF" /><rect x="120" y="112" width="8" height="8" fill="#ABABFF" /><rect x="128" y="112" width="8" height="8" fill="#ABABFF" /><rect x="152" y="112" width="8" height="8" fill="#ABABFF" /><rect x="160" y="112" width="8" height="8" fill="#ABABFF" /><rect x="184" y="112" width="8" height="8" fill="#ABABFF" /><rect x="192" y="112" width="8" height="8" fill="#ABABFF" /><rect x="208" y="112" width="8" height="8" fill="#ABABFF" /><rect x="232" y="112" width="8" height="8" fill="#ABABFF" /><rect x="248" y="112" width="8" height="8" fill="#ABABFF" /><rect x="272" y="112" width="8" height="8" fill="#ABABFF" /><rect x="288" y="112" width="8" height="8" fill="#ABABFF" /><rect x="304" y="112" width="8" height="8" fill="#ABABFF" /><rect x="312" y="112" width="8" height="8" fill="#ABABFF" /><rect x="320" y="112" width="8" height="8" fill="#ABABFF" /><rect x="0" y="120" width="8" height="8" fill="#ABABFF" /><rect x="8" y="120" width="8" height="8" fill="#ABABFF" /><rect x="24" y="120" width="8" height="8" fill="#ABABFF" /><rect x="32" y="120" width="8" height="8" fill="#ABABFF" /><rect x="56" y="120" width="8" height="8" fill="#ABABFF" /><rect x="72" y="120" width="8" height="8" fill="#ABABFF" /><rect x="80" y="120" width="8" height="8" fill="#ABABFF" /><rect x="104" y="120" width="8" height="8" fill="#ABABFF" /><rect x="112" y="120" width="8" height="8" fill="#ABABFF" /><rect x="152" y="120" width="8" height="8" fill="#ABABFF" /><rect x="160" y="120" width="8" height="8" fill="#ABABFF" /><rect x="168" y="120" width="8" height="8" fill="#ABABFF" /><rect x="192" y="120" width="8" height="8" fill="#ABABFF" /><rect x="200" y="120" width="8" height="8" fill="#ABABFF" /><rect x="216" y="120" width="8" height="8" fill="#ABABFF" /><rect x="248" y="120" width="8" height="8" fill="#ABABFF" /><rect x="256" y="120" width="8" height="8" fill="#ABABFF" /><rect x="272" y="120" width="8" height="8" fill="#ABABFF" /><rect x="280" y="120" width="8" height="8" fill="#ABABFF" /><rect x="296" y="120" width="8" height="8" fill="#ABABFF" /><rect x="312" y="120" width="8" height="8" fill="#ABABFF" /><rect x="0" y="128" width="8" height="8" fill="#ABABFF" /><rect x="16" y="128" width="8" height="8" fill="#ABABFF" /><rect x="40" y="128" width="8" height="8" fill="#ABABFF" /><rect x="48" y="128" width="8" height="8" fill="#ABABFF" /><rect x="64" y="128" width="8" height="8" fill="#ABABFF" /><rect x="80" y="128" width="8" height="8" fill="#ABABFF" /><rect x="112" y="128" width="8" height="8" fill="#ABABFF" /><rect x="128" y="128" width="8" height="8" fill="#ABABFF" /><rect x="136" y="128" width="8" height="8" fill="#ABABFF" /><rect x="144" y="128" width="8" height="8" fill="#ABABFF" /><rect x="152" y="128" width="8" height="8" fill="#ABABFF" /><rect x="160" y="128" width="8" height="8" fill="#ABABFF" /><rect x="176" y="128" width="8" height="8" fill="#ABABFF" /><rect x="240" y="128" width="8" height="8" fill="#ABABFF" /><rect x="288" y="128" width="8" height="8" fill="#ABABFF" /><rect x="320" y="128" width="8" height="8" fill="#ABABFF" /><rect x="16" y="136" width="8" height="8" fill="#ABABFF" /><rect x="24" y="136" width="8" height="8" fill="#ABABFF" /><rect x="72" y="136" width="8" height="8" fill="#ABABFF" /><rect x="96" y="136" width="8" height="8" fill="#ABABFF" /><rect x="104" y="136" width="8" height="8" fill="#ABABFF" /><rect x="120" y="136" width="8" height="8" fill="#ABABFF" /><rect x="136" y="136" width="8" height="8" fill="#ABABFF" /><rect x="152" y="136" width="8" height="8" fill="#ABABFF" /><rect x="160" y="136" width="8" height="8" fill="#ABABFF" /><rect x="168" y="136" width="8" height="8" fill="#ABABFF" /><rect x="176" y="136" width="8" height="8" fill="#ABABFF" /><rect x="184" y="136" width="8" height="8" fill="#ABABFF" /><rect x="192" y="136" width="8" height="8" fill="#ABABFF" /><rect x="208" y="136" width="8" height="8" fill="#ABABFF" /><rect x="216" y="136" width="8" height="8" fill="#ABABFF" /><rect x="232" y="136" width="8" height="8" fill="#ABABFF" /><rect x="256" y="136" width="8" height="8" fill="#ABABFF" /><rect x="264" y="136" width="8" height="8" fill="#ABABFF" /><rect x="280" y="136" width="8" height="8" fill="#ABABFF" /><rect x="296" y="136" width="8" height="8" fill="#ABABFF" /><rect x="0" y="144" width="8" height="8" fill="#ABABFF" /><rect x="8" y="144" width="8" height="8" fill="#ABABFF" /><rect x="48" y="144" width="8" height="8" fill="#ABABFF" /><rect x="64" y="144" width="8" height="8" fill="#ABABFF" /><rect x="80" y="144" width="8" height="8" fill="#ABABFF" /><rect x="112" y="144" width="8" height="8" fill="#ABABFF" /><rect x="128" y="144" width="8" height="8" fill="#ABABFF" /><rect x="136" y="144" width="8" height="8" fill="#ABABFF" /><rect x="168" y="144" width="8" height="8" fill="#ABABFF" /><rect x="176" y="144" width="8" height="8" fill="#ABABFF" /><rect x="184" y="144" width="8" height="8" fill="#ABABFF" /><rect x="192" y="144" width="8" height="8" fill="#ABABFF" /><rect x="216" y="144" width="8" height="8" fill="#ABABFF" /><rect x="232" y="144" width="8" height="8" fill="#ABABFF" /><rect x="256" y="144" width="8" height="8" fill="#ABABFF" /><rect x="264" y="144" width="8" height="8" fill="#ABABFF" /><rect x="288" y="144" width="8" height="8" fill="#ABABFF" /><rect x="296" y="144" width="8" height="8" fill="#ABABFF" /><rect x="16" y="152" width="8" height="8" fill="#ABABFF" /><rect x="24" y="152" width="8" height="8" fill="#ABABFF" /><rect x="32" y="152" width="8" height="8" fill="#ABABFF" /><rect x="56" y="152" width="8" height="8" fill="#ABABFF" /><rect x="64" y="152" width="8" height="8" fill="#ABABFF" /><rect x="96" y="152" width="8" height="8" fill="#ABABFF" /><rect x="112" y="152" width="8" height="8" fill="#ABABFF" /><rect x="176" y="152" width="8" height="8" fill="#ABABFF" /><rect x="200" y="152" width="8" height="8" fill="#ABABFF" /><rect x="208" y="152" width="8" height="8" fill="#ABABFF" /><rect x="216" y="152" width="8" height="8" fill="#ABABFF" /><rect x="248" y="152" width="8" height="8" fill="#ABABFF" /><rect x="264" y="152" width="8" height="8" fill="#ABABFF" /><rect x="272" y="152" width="8" height="8" fill="#ABABFF" /><rect x="280" y="152" width="8" height="8" fill="#ABABFF" /><rect x="296" y="152" width="8" height="8" fill="#ABABFF" /><rect x="304" y="152" width="8" height="8" fill="#ABABFF" /><rect x="312" y="152" width="8" height="8" fill="#ABABFF" /><rect x="320" y="152" width="8" height="8" fill="#ABABFF" /><rect x="16" y="160" width="8" height="8" fill="#ABABFF" /><rect x="32" y="160" width="8" height="8" fill="#ABABFF" /><rect x="40" y="160" width="8" height="8" fill="#ABABFF" /><rect x="48" y="160" width="8" height="8" fill="#ABABFF" /><rect x="56" y="160" width="8" height="8" fill="#ABABFF" /><rect x="64" y="160" width="8" height="8" fill="#ABABFF" /><rect x="80" y="160" width="8" height="8" fill="#ABABFF" /><rect x="128" y="160" width="8" height="8" fill="#ABABFF" /><rect x="136" y="160" width="8" height="8" fill="#ABABFF" /><rect x="160" y="160" width="8" height="8" fill="#ABABFF" /><rect x="192" y="160" width="8" height="8" fill="#ABABFF" /><rect x="200" y="160" width="8" height="8" fill="#ABABFF" /><rect x="224" y="160" width="8" height="8" fill="#ABABFF" /><rect x="240" y="160" width="8" height="8" fill="#ABABFF" /><rect x="264" y="160" width="8" height="8" fill="#ABABFF" /><rect x="272" y="160" width="8" height="8" fill="#ABABFF" /><rect x="288" y="160" width="8" height="8" fill="#ABABFF" /><rect x="304" y="160" width="8" height="8" fill="#ABABFF" /><rect x="320" y="160" width="8" height="8" fill="#ABABFF" /><rect x="32" y="168" width="8" height="8" fill="#ABABFF" /><rect x="40" y="168" width="8" height="8" fill="#ABABFF" /><rect x="88" y="168" width="8" height="8" fill="#ABABFF" /><rect x="96" y="168" width="8" height="8" fill="#ABABFF" /><rect x="112" y="168" width="8" height="8" fill="#ABABFF" /><rect x="136" y="168" width="8" height="8" fill="#ABABFF" /><rect x="144" y="168" width="8" height="8" fill="#ABABFF" /><rect x="184" y="168" width="8" height="8" fill="#ABABFF" /><rect x="224" y="168" width="8" height="8" fill="#ABABFF" /><rect x="240" y="168" width="8" height="8" fill="#ABABFF" /><rect x="248" y="168" width="8" height="8" fill="#ABABFF" /><rect x="264" y="168" width="8" height="8" fill="#ABABFF" /><rect x="272" y="168" width="8" height="8" fill="#ABABFF" /><rect x="288" y="168" width="8" height="8" fill="#ABABFF" /><rect x="296" y="168" width="8" height="8" fill="#ABABFF" /><rect x="304" y="168" width="8" height="8" fill="#ABABFF" /><rect x="312" y="168" width="8" height="8" fill="#ABABFF" /><rect x="320" y="168" width="8" height="8" fill="#ABABFF" /><rect x="0" y="176" width="8" height="8" fill="#ABABFF" /><rect x="48" y="176" width="8" height="8" fill="#ABABFF" /><rect x="80" y="176" width="8" height="8" fill="#ABABFF" /><rect x="112" y="176" width="8" height="8" fill="#ABABFF" /><rect x="120" y="176" width="8" height="8" fill="#ABABFF" /><rect x="152" y="176" width="8" height="8" fill="#ABABFF" /><rect x="168" y="176" width="8" height="8" fill="#ABABFF" /><rect x="184" y="176" width="8" height="8" fill="#ABABFF" /><rect x="192" y="176" width="8" height="8" fill="#ABABFF" /><rect x="232" y="176" width="8" height="8" fill="#ABABFF" /><rect x="240" y="176" width="8" height="8" fill="#ABABFF" /><rect x="312" y="176" width="8" height="8" fill="#ABABFF" /><rect x="8" y="184" width="8" height="8" fill="#ABABFF" /><rect x="40" y="184" width="8" height="8" fill="#ABABFF" /><rect x="56" y="184" width="8" height="8" fill="#ABABFF" /><rect x="64" y="184" width="8" height="8" fill="#ABABFF" /><rect x="112" y="184" width="8" height="8" fill="#ABABFF" /><rect x="144" y="184" width="8" height="8" fill="#ABABFF" /><rect x="168" y="184" width="8" height="8" fill="#ABABFF" /><rect x="184" y="184" width="8" height="8" fill="#ABABFF" /><rect x="192" y="184" width="8" height="8" fill="#ABABFF" /><rect x="216" y="184" width="8" height="8" fill="#ABABFF" /><rect x="240" y="184" width="8" height="8" fill="#ABABFF" /><rect x="248" y="184" width="8" height="8" fill="#ABABFF" /><rect x="256" y="184" width="8" height="8" fill="#ABABFF" /><rect x="264" y="184" width="8" height="8" fill="#ABABFF" /><rect x="272" y="184" width="8" height="8" fill="#ABABFF" /><rect x="312" y="184" width="8" height="8" fill="#ABABFF" /><rect x="320" y="184" width="8" height="8" fill="#ABABFF" /><rect x="0" y="192" width="8" height="8" fill="#ABABFF" /><rect x="8" y="192" width="8" height="8" fill="#ABABFF" /><rect x="32" y="192" width="8" height="8" fill="#ABABFF" /><rect x="48" y="192" width="8" height="8" fill="#ABABFF" /><rect x="56" y="192" width="8" height="8" fill="#ABABFF" /><rect x="64" y="192" width="8" height="8" fill="#ABABFF" /><rect x="72" y="192" width="8" height="8" fill="#ABABFF" /><rect x="80" y="192" width="8" height="8" fill="#ABABFF" /><rect x="88" y="192" width="8" height="8" fill="#ABABFF" /><rect x="112" y="192" width="8" height="8" fill="#ABABFF" /><rect x="136" y="192" width="8" height="8" fill="#ABABFF" /><rect x="144" y="192" width="8" height="8" fill="#ABABFF" /><rect x="160" y="192" width="8" height="8" fill="#ABABFF" /><rect x="176" y="192" width="8" height="8" fill="#ABABFF" /><rect x="192" y="192" width="8" height="8" fill="#ABABFF" /><rect x="208" y="192" width="8" height="8" fill="#ABABFF" /><rect x="216" y="192" width="8" height="8" fill="#ABABFF" /><rect x="232" y="192" width="8" height="8" fill="#ABABFF" /><rect x="248" y="192" width="8" height="8" fill="#ABABFF" /><rect x="304" y="192" width="8" height="8" fill="#ABABFF" /><rect x="16" y="200" width="8" height="8" fill="#ABABFF" /><rect x="24" y="200" width="8" height="8" fill="#ABABFF" /><rect x="32" y="200" width="8" height="8" fill="#ABABFF" /><rect x="40" y="200" width="8" height="8" fill="#ABABFF" /><rect x="56" y="200" width="8" height="8" fill="#ABABFF" /><rect x="64" y="200" width="8" height="8" fill="#ABABFF" /><rect x="72" y="200" width="8" height="8" fill="#ABABFF" /><rect x="104" y="200" width="8" height="8" fill="#ABABFF" /><rect x="120" y="200" width="8" height="8" fill="#ABABFF" /><rect x="168" y="200" width="8" height="8" fill="#ABABFF" /><rect x="176" y="200" width="8" height="8" fill="#ABABFF" /><rect x="200" y="200" width="8" height="8" fill="#ABABFF" /><rect x="208" y="200" width="8" height="8" fill="#ABABFF" /><rect x="216" y="200" width="8" height="8" fill="#ABABFF" /><rect x="224" y="200" width="8" height="8" fill="#ABABFF" /><rect x="248" y="200" width="8" height="8" fill="#ABABFF" /><rect x="256" y="200" width="8" height="8" fill="#ABABFF" /><rect x="272" y="200" width="8" height="8" fill="#ABABFF" /><rect x="296" y="200" width="8" height="8" fill="#ABABFF" /><rect x="304" y="200" width="8" height="8" fill="#ABABFF" /><rect x="320" y="200" width="8" height="8" fill="#ABABFF" /><rect x="8" y="208" width="8" height="8" fill="#ABABFF" /><rect x="16" y="208" width="8" height="8" fill="#ABABFF" /><rect x="32" y="208" width="8" height="8" fill="#ABABFF" /><rect x="48" y="208" width="8" height="8" fill="#ABABFF" /><rect x="56" y="208" width="8" height="8" fill="#ABABFF" /><rect x="64" y="208" width="8" height="8" fill="#ABABFF" /><rect x="80" y="208" width="8" height="8" fill="#ABABFF" /><rect x="88" y="208" width="8" height="8" fill="#ABABFF" /><rect x="120" y="208" width="8" height="8" fill="#ABABFF" /><rect x="152" y="208" width="8" height="8" fill="#ABABFF" /><rect x="168" y="208" width="8" height="8" fill="#ABABFF" /><rect x="184" y="208" width="8" height="8" fill="#ABABFF" /><rect x="200" y="208" width="8" height="8" fill="#ABABFF" /><rect x="224" y="208" width="8" height="8" fill="#ABABFF" /><rect x="232" y="208" width="8" height="8" fill="#ABABFF" /><rect x="240" y="208" width="8" height="8" fill="#ABABFF" /><rect x="248" y="208" width="8" height="8" fill="#ABABFF" /><rect x="256" y="208" width="8" height="8" fill="#ABABFF" /><rect x="272" y="208" width="8" height="8" fill="#ABABFF" /><rect x="296" y="208" width="8" height="8" fill="#ABABFF" /><rect x="312" y="208" width="8" height="8" fill="#ABABFF" /><rect x="320" y="208" width="8" height="8" fill="#ABABFF" /><rect x="0" y="216" width="8" height="8" fill="#ABABFF" /><rect x="40" y="216" width="8" height="8" fill="#ABABFF" /><rect x="56" y="216" width="8" height="8" fill="#ABABFF" /><rect x="72" y="216" width="8" height="8" fill="#ABABFF" /><rect x="88" y="216" width="8" height="8" fill="#ABABFF" /><rect x="112" y="216" width="8" height="8" fill="#ABABFF" /><rect x="120" y="216" width="8" height="8" fill="#ABABFF" /><rect x="136" y="216" width="8" height="8" fill="#ABABFF" /><rect x="152" y="216" width="8" height="8" fill="#ABABFF" /><rect x="160" y="216" width="8" height="8" fill="#ABABFF" /><rect x="176" y="216" width="8" height="8" fill="#ABABFF" /><rect x="192" y="216" width="8" height="8" fill="#ABABFF" /><rect x="200" y="216" width="8" height="8" fill="#ABABFF" /><rect x="208" y="216" width="8" height="8" fill="#ABABFF" /><rect x="224" y="216" width="8" height="8" fill="#ABABFF" /><rect x="248" y="216" width="8" height="8" fill="#ABABFF" /><rect x="256" y="216" width="8" height="8" fill="#ABABFF" /><rect x="272" y="216" width="8" height="8" fill="#ABABFF" /><rect x="280" y="216" width="8" height="8" fill="#ABABFF" /><rect x="288" y="216" width="8" height="8" fill="#ABABFF" /><rect x="296" y="216" width="8" height="8" fill="#ABABFF" /><rect x="312" y="216" width="8" height="8" fill="#ABABFF" /><rect x="24" y="224" width="8" height="8" fill="#ABABFF" /><rect x="32" y="224" width="8" height="8" fill="#ABABFF" /><rect x="48" y="224" width="8" height="8" fill="#ABABFF" /><rect x="64" y="224" width="8" height="8" fill="#ABABFF" /><rect x="72" y="224" width="8" height="8" fill="#ABABFF" /><rect x="80" y="224" width="8" height="8" fill="#ABABFF" /><rect x="104" y="224" width="8" height="8" fill="#ABABFF" /><rect x="112" y="224" width="8" height="8" fill="#ABABFF" /><rect x="128" y="224" width="8" height="8" fill="#ABABFF" /><rect x="136" y="224" width="8" height="8" fill="#ABABFF" /><rect x="144" y="224" width="8" height="8" fill="#ABABFF" /><rect x="160" y="224" width="8" height="8" fill="#ABABFF" /><rect x="208" y="224" width="8" height="8" fill="#ABABFF" /><rect x="216" y="224" width="8" height="8" fill="#ABABFF" /><rect x="240" y="224" width="8" height="8" fill="#ABABFF" /><rect x="248" y="224" width="8" height="8" fill="#ABABFF" /><rect x="280" y="224" width="8" height="8" fill="#ABABFF" /><rect x="288" y="224" width="8" height="8" fill="#ABABFF" /><rect x="296" y="224" width="8" height="8" fill="#ABABFF" /><rect x="312" y="224" width="8" height="8" fill="#ABABFF" /><rect x="40" y="232" width="8" height="8" fill="#ABABFF" /><rect x="64" y="232" width="8" height="8" fill="#ABABFF" /><rect x="72" y="232" width="8" height="8" fill="#ABABFF" /><rect x="88" y="232" width="8" height="8" fill="#ABABFF" /><rect x="104" y="232" width="8" height="8" fill="#ABABFF" /><rect x="120" y="232" width="8" height="8" fill="#ABABFF" /><rect x="144" y="232" width="8" height="8" fill="#ABABFF" /><rect x="160" y="232" width="8" height="8" fill="#ABABFF" /><rect x="176" y="232" width="8" height="8" fill="#ABABFF" /><rect x="184" y="232" width="8" height="8" fill="#ABABFF" /><rect x="192" y="232" width="8" height="8" fill="#ABABFF" /><rect x="232" y="232" width="8" height="8" fill="#ABABFF" /><rect x="264" y="232" width="8" height="8" fill="#ABABFF" /><rect x="0" y="240" width="8" height="8" fill="#ABABFF" /><rect x="32" y="240" width="8" height="8" fill="#ABABFF" /><rect x="40" y="240" width="8" height="8" fill="#ABABFF" /><rect x="48" y="240" width="8" height="8" fill="#ABABFF" /><rect x="80" y="240" width="8" height="8" fill="#ABABFF" /><rect x="104" y="240" width="8" height="8" fill="#ABABFF" /><rect x="112" y="240" width="8" height="8" fill="#ABABFF" /><rect x="136" y="240" width="8" height="8" fill="#ABABFF" /><rect x="144" y="240" width="8" height="8" fill="#ABABFF" /><rect x="160" y="240" width="8" height="8" fill="#ABABFF" /><rect x="168" y="240" width="8" height="8" fill="#ABABFF" /><rect x="176" y="240" width="8" height="8" fill="#ABABFF" /><rect x="200" y="240" width="8" height="8" fill="#ABABFF" /><rect x="208" y="240" width="8" height="8" fill="#ABABFF" /><rect x="264" y="240" width="8" height="8" fill="#ABABFF" /><rect x="272" y="240" width="8" height="8" fill="#ABABFF" /><rect x="296" y="240" width="8" height="8" fill="#ABABFF" /><rect x="16" y="248" width="8" height="8" fill="#ABABFF" /><rect x="24" y="248" width="8" height="8" fill="#ABABFF" /><rect x="72" y="248" width="8" height="8" fill="#ABABFF" /><rect x="80" y="248" width="8" height="8" fill="#ABABFF" /><rect x="88" y="248" width="8" height="8" fill="#ABABFF" /><rect x="104" y="248" width="8" height="8" fill="#ABABFF" /><rect x="144" y="248" width="8" height="8" fill="#ABABFF" /><rect x="184" y="248" width="8" height="8" fill="#ABABFF" /><rect x="192" y="248" width="8" height="8" fill="#ABABFF" /><rect x="200" y="248" width="8" height="8" fill="#ABABFF" /><rect x="208" y="248" width="8" height="8" fill="#ABABFF" /><rect x="216" y="248" width="8" height="8" fill="#ABABFF" /><rect x="224" y="248" width="8" height="8" fill="#ABABFF" /><rect x="232" y="248" width="8" height="8" fill="#ABABFF" /><rect x="248" y="248" width="8" height="8" fill="#ABABFF" /><rect x="272" y="248" width="8" height="8" fill="#ABABFF" /><rect x="280" y="248" width="8" height="8" fill="#ABABFF" /><rect x="296" y="248" width="8" height="8" fill="#ABABFF" /><rect x="304" y="248" width="8" height="8" fill="#ABABFF" /><rect x="320" y="248" width="8" height="8" fill="#ABABFF" /><rect x="8" y="256" width="8" height="8" fill="#ABABFF" /><rect x="24" y="256" width="8" height="8" fill="#ABABFF" /><rect x="48" y="256" width="8" height="8" fill="#ABABFF" /><rect x="56" y="256" width="8" height="8" fill="#ABABFF" /><rect x="64" y="256" width="8" height="8" fill="#ABABFF" /><rect x="88" y="256" width="8" height="8" fill="#ABABFF" /><rect x="96" y="256" width="8" height="8" fill="#ABABFF" /><rect x="104" y="256" width="8" height="8" fill="#ABABFF" /><rect x="128" y="256" width="8" height="8" fill="#ABABFF" /><rect x="136" y="256" width="8" height="8" fill="#ABABFF" /><rect x="168" y="256" width="8" height="8" fill="#ABABFF" /><rect x="176" y="256" width="8" height="8" fill="#ABABFF" /><rect x="192" y="256" width="8" height="8" fill="#ABABFF" /><rect x="216" y="256" width="8" height="8" fill="#ABABFF" /><rect x="232" y="256" width="8" height="8" fill="#ABABFF" /><rect x="240" y="256" width="8" height="8" fill="#ABABFF" /><rect x="248" y="256" width="8" height="8" fill="#ABABFF" /><rect x="256" y="256" width="8" height="8" fill="#ABABFF" /><rect x="264" y="256" width="8" height="8" fill="#ABABFF" /><rect x="272" y="256" width="8" height="8" fill="#ABABFF" /><rect x="280" y="256" width="8" height="8" fill="#ABABFF" /><rect x="288" y="256" width="8" height="8" fill="#ABABFF" /><rect x="304" y="256" width="8" height="8" fill="#ABABFF" /><rect x="320" y="256" width="8" height="8" fill="#ABABFF" /><rect x="64" y="264" width="8" height="8" fill="#ABABFF" /><rect x="80" y="264" width="8" height="8" fill="#ABABFF" /><rect x="88" y="264" width="8" height="8" fill="#ABABFF" /><rect x="96" y="264" width="8" height="8" fill="#ABABFF" /><rect x="160" y="264" width="8" height="8" fill="#ABABFF" /><rect x="168" y="264" width="8" height="8" fill="#ABABFF" /><rect x="176" y="264" width="8" height="8" fill="#ABABFF" /><rect x="192" y="264" width="8" height="8" fill="#ABABFF" /><rect x="200" y="264" width="8" height="8" fill="#ABABFF" /><rect x="224" y="264" width="8" height="8" fill="#ABABFF" /><rect x="240" y="264" width="8" height="8" fill="#ABABFF" /><rect x="256" y="264" width="8" height="8" fill="#ABABFF" /><rect x="288" y="264" width="8" height="8" fill="#ABABFF" /><rect x="312" y="264" width="8" height="8" fill="#ABABFF" /><rect x="320" y="264" width="8" height="8" fill="#ABABFF" /><rect x="0" y="272" width="8" height="8" fill="#ABABFF" /><rect x="8" y="272" width="8" height="8" fill="#ABABFF" /><rect x="16" y="272" width="8" height="8" fill="#ABABFF" /><rect x="24" y="272" width="8" height="8" fill="#ABABFF" /><rect x="32" y="272" width="8" height="8" fill="#ABABFF" /><rect x="40" y="272" width="8" height="8" fill="#ABABFF" /><rect x="48" y="272" width="8" height="8" fill="#ABABFF" /><rect x="64" y="272" width="8" height="8" fill="#ABABFF" /><rect x="72" y="272" width="8" height="8" fill="#ABABFF" /><rect x="120" y="272" width="8" height="8" fill="#ABABFF" /><rect x="136" y="272" width="8" height="8" fill="#ABABFF" /><rect x="144" y="272" width="8" height="8" fill="#ABABFF" /><rect x="184" y="272" width="8" height="8" fill="#ABABFF" /><rect x="192" y="272" width="8" height="8" fill="#ABABFF" /><rect x="200" y="272" width="8" height="8" fill="#ABABFF" /><rect x="224" y="272" width="8" height="8" fill="#ABABFF" /><rect x="232" y="272" width="8" height="8" fill="#ABABFF" /><rect x="248" y="272" width="8" height="8" fill="#ABABFF" /><rect x="256" y="272" width="8" height="8" fill="#ABABFF" /><rect x="272" y="272" width="8" height="8" fill="#ABABFF" /><rect x="288" y="272" width="8" height="8" fill="#ABABFF" /><rect x="312" y="272" width="8" height="8" fill="#ABABFF" /><rect x="0" y="280" width="8" height="8" fill="#ABABFF" /><rect x="48" y="280" width="8" height="8" fill="#ABABFF" /><rect x="72" y="280" width="8" height="8" fill="#ABABFF" /><rect x="104" y="280" width="8" height="8" fill="#ABABFF" /><rect x="112" y="280" width="8" height="8" fill="#ABABFF" /><rect x="120" y="280" width="8" height="8" fill="#ABABFF" /><rect x="136" y="280" width="8" height="8" fill="#ABABFF" /><rect x="160" y="280" width="8" height="8" fill="#ABABFF" /><rect x="168" y="280" width="8" height="8" fill="#ABABFF" /><rect x="176" y="280" width="8" height="8" fill="#ABABFF" /><rect x="184" y="280" width="8" height="8" fill="#ABABFF" /><rect x="192" y="280" width="8" height="8" fill="#ABABFF" /><rect x="208" y="280" width="8" height="8" fill="#ABABFF" /><rect x="240" y="280" width="8" height="8" fill="#ABABFF" /><rect x="248" y="280" width="8" height="8" fill="#ABABFF" /><rect x="256" y="280" width="8" height="8" fill="#ABABFF" /><rect x="288" y="280" width="8" height="8" fill="#ABABFF" /><rect x="312" y="280" width="8" height="8" fill="#ABABFF" /><rect x="0" y="288" width="8" height="8" fill="#ABABFF" /><rect x="16" y="288" width="8" height="8" fill="#ABABFF" /><rect x="24" y="288" width="8" height="8" fill="#ABABFF" /><rect x="32" y="288" width="8" height="8" fill="#ABABFF" /><rect x="48" y="288" width="8" height="8" fill="#ABABFF" /><rect x="72" y="288" width="8" height="8" fill="#ABABFF" /><rect x="88" y="288" width="8" height="8" fill="#ABABFF" /><rect x="152" y="288" width="8" height="8" fill="#ABABFF" /><rect x="160" y="288" width="8" height="8" fill="#ABABFF" /><rect x="176" y="288" width="8" height="8" fill="#ABABFF" /><rect x="184" y="288" width="8" height="8" fill="#ABABFF" /><rect x="200" y="288" width="8" height="8" fill="#ABABFF" /><rect x="208" y="288" width="8" height="8" fill="#ABABFF" /><rect x="216" y="288" width="8" height="8" fill="#ABABFF" /><rect x="224" y="288" width="8" height="8" fill="#ABABFF" /><rect x="240" y="288" width="8" height="8" fill="#ABABFF" /><rect x="256" y="288" width="8" height="8" fill="#ABABFF" /><rect x="264" y="288" width="8" height="8" fill="#ABABFF" /><rect x="272" y="288" width="8" height="8" fill="#ABABFF" /><rect x="280" y="288" width="8" height="8" fill="#ABABFF" /><rect x="288" y="288" width="8" height="8" fill="#ABABFF" /><rect x="296" y="288" width="8" height="8" fill="#ABABFF" /><rect x="304" y="288" width="8" height="8" fill="#ABABFF" /><rect x="320" y="288" width="8" height="8" fill="#ABABFF" /><rect x="0" y="296" width="8" height="8" fill="#ABABFF" /><rect x="16" y="296" width="8" height="8" fill="#ABABFF" /><rect x="24" y="296" width="8" height="8" fill="#ABABFF" /><rect x="32" y="296" width="8" height="8" fill="#ABABFF" /><rect x="48" y="296" width="8" height="8" fill="#ABABFF" /><rect x="64" y="296" width="8" height="8" fill="#ABABFF" /><rect x="72" y="296" width="8" height="8" fill="#ABABFF" /><rect x="80" y="296" width="8" height="8" fill="#ABABFF" /><rect x="96" y="296" width="8" height="8" fill="#ABABFF" /><rect x="104" y="296" width="8" height="8" fill="#ABABFF" /><rect x="120" y="296" width="8" height="8" fill="#ABABFF" /><rect x="128" y="296" width="8" height="8" fill="#ABABFF" /><rect x="152" y="296" width="8" height="8" fill="#ABABFF" /><rect x="184" y="296" width="8" height="8" fill="#ABABFF" /><rect x="216" y="296" width="8" height="8" fill="#ABABFF" /><rect x="224" y="296" width="8" height="8" fill="#ABABFF" /><rect x="232" y="296" width="8" height="8" fill="#ABABFF" /><rect x="240" y="296" width="8" height="8" fill="#ABABFF" /><rect x="288" y="296" width="8" height="8" fill="#ABABFF" /><rect x="312" y="296" width="8" height="8" fill="#ABABFF" /><rect x="320" y="296" width="8" height="8" fill="#ABABFF" /><rect x="0" y="304" width="8" height="8" fill="#ABABFF" /><rect x="16" y="304" width="8" height="8" fill="#ABABFF" /><rect x="24" y="304" width="8" height="8" fill="#ABABFF" /><rect x="32" y="304" width="8" height="8" fill="#ABABFF" /><rect x="48" y="304" width="8" height="8" fill="#ABABFF" /><rect x="64" y="304" width="8" height="8" fill="#ABABFF" /><rect x="72" y="304" width="8" height="8" fill="#ABABFF" /><rect x="80" y="304" width="8" height="8" fill="#ABABFF" /><rect x="88" y="304" width="8" height="8" fill="#ABABFF" /><rect x="112" y="304" width="8" height="8" fill="#ABABFF" /><rect x="120" y="304" width="8" height="8" fill="#ABABFF" /><rect x="136" y="304" width="8" height="8" fill="#ABABFF" /><rect x="144" y="304" width="8" height="8" fill="#ABABFF" /><rect x="152" y="304" width="8" height="8" fill="#ABABFF" /><rect x="168" y="304" width="8" height="8" fill="#ABABFF" /><rect x="176" y="304" width="8" height="8" fill="#ABABFF" /><rect x="184" y="304" width="8" height="8" fill="#ABABFF" /><rect x="192" y="304" width="8" height="8" fill="#ABABFF" /><rect x="208" y="304" width="8" height="8" fill="#ABABFF" /><rect x="232" y="304" width="8" height="8" fill="#ABABFF" /><rect x="248" y="304" width="8" height="8" fill="#ABABFF" /><rect x="280" y="304" width="8" height="8" fill="#ABABFF" /><rect x="320" y="304" width="8" height="8" fill="#ABABFF" /><rect x="0" y="312" width="8" height="8" fill="#ABABFF" /><rect x="48" y="312" width="8" height="8" fill="#ABABFF" /><rect x="72" y="312" width="8" height="8" fill="#ABABFF" /><rect x="88" y="312" width="8" height="8" fill="#ABABFF" /><rect x="104" y="312" width="8" height="8" fill="#ABABFF" /><rect x="120" y="312" width="8" height="8" fill="#ABABFF" /><rect x="128" y="312" width="8" height="8" fill="#ABABFF" /><rect x="136" y="312" width="8" height="8" fill="#ABABFF" /><rect x="160" y="312" width="8" height="8" fill="#ABABFF" /><rect x="168" y="312" width="8" height="8" fill="#ABABFF" /><rect x="184" y="312" width="8" height="8" fill="#ABABFF" /><rect x="216" y="312" width="8" height="8" fill="#ABABFF" /><rect x="224" y="312" width="8" height="8" fill="#ABABFF" /><rect x="240" y="312" width="8" height="8" fill="#ABABFF" /><rect x="256" y="312" width="8" height="8" fill="#ABABFF" /><rect x="272" y="312" width="8" height="8" fill="#ABABFF" /><rect x="288" y="312" width="8" height="8" fill="#ABABFF" /><rect x="296" y="312" width="8" height="8" fill="#ABABFF" /><rect x="312" y="312" width="8" height="8" fill="#ABABFF" /><rect x="0" y="320" width="8" height="8" fill="#ABABFF" /><rect x="8" y="320" width="8" height="8" fill="#ABABFF" /><rect x="16" y="320" width="8" height="8" fill="#ABABFF" /><rect x="24" y="320" width="8" height="8" fill="#ABABFF" /><rect x="32" y="320" width="8" height="8" fill="#ABABFF" /><rect x="40" y="320" width="8" height="8" fill="#ABABFF" /><rect x="48" y="320" width="8" height="8" fill="#ABABFF" /><rect x="72" y="320" width="8" height="8" fill="#ABABFF" /><rect x="80" y="320" width="8" height="8" fill="#ABABFF" /><rect x="88" y="320" width="8" height="8" fill="#ABABFF" /><rect x="112" y="320" width="8" height="8" fill="#ABABFF" /><rect x="120" y="320" width="8" height="8" fill="#ABABFF" /><rect x="128" y="320" width="8" height="8" fill="#ABABFF" /><rect x="136" y="320" width="8" height="8" fill="#ABABFF" /><rect x="144" y="320" width="8" height="8" fill="#ABABFF" /><rect x="168" y="320" width="8" height="8" fill="#ABABFF" /><rect x="176" y="320" width="8" height="8" fill="#ABABFF" /><rect x="192" y="320" width="8" height="8" fill="#ABABFF" /><rect x="200" y="320" width="8" height="8" fill="#ABABFF" /><rect x="208" y="320" width="8" height="8" fill="#ABABFF" /><rect x="248" y="320" width="8" height="8" fill="#ABABFF" /><rect x="256" y="320" width="8" height="8" fill="#ABABFF" /><rect x="264" y="320" width="8" height="8" fill="#ABABFF" /><rect x="272" y="320" width="8" height="8" fill="#ABABFF" /><rect x="312" y="320" width="8" height="8" fill="#ABABFF" /></svg>