<?xml version="1.0" encoding="UTF-8" standalone="no"?>
<!-- Created with Inkscape (http://www.inkscape.org/) -->

<svg
   xmlns:dc="http://purl.org/dc/elements/1.1/"
   xmlns:cc="http://creativecommons.org/ns#"
   xmlns:rdf="http://www.w3.org/1999/02/22-rdf-syntax-ns#"
   xmlns:svg="http://www.w3.org/2000/svg"
   xmlns="http://www.w3.org/2000/svg"
   xmlns:xlink="http://www.w3.org/1999/xlink"
   xmlns:sodipodi="http://sodipodi.sourceforge.net/DTD/sodipodi-0.dtd"
   xmlns:inkscape="http://www.inkscape.org/namespaces/inkscape"
   width="46in"
   height="42in"
   viewBox="0 0 1168.4 1066.8"
   version="1.1"
   id="svg8"
   inkscape:version="0.92.2 (5c3e80d, 2017-08-06)"
   sodipodi:docname="icpp-2018-reproducibility.svg">
  <defs
     id="defs2">
    <symbol
       id="github-square"
       viewBox="0 0 448 512">
      <title
         id="github-square-title">GitHub Square</title>
      <path
         style="stroke-width:0.01041667"
         inkscape:connector-curvature="0"
         d="M 4.1666667,0.33333333 H 0.5 c -0.27604167,0 -0.5,0.22395834 -0.5,0.5 V 4.5 C 0,4.7760417 0.22395833,5 0.5,5 h 3.6666667 c 0.2760416,0 0.5,-0.2239583 0.5,-0.5 V 0.83333333 c 0,-0.27604166 -0.2239584,-0.5 -0.5,-0.5 z M 2.8885417,4.3302083 C 2.8010417,4.3458333 2.76875,4.2916667 2.76875,4.246875 c 0,-0.05625 0.00208,-0.34375 0.00208,-0.5760417 0,-0.1625 -0.054167,-0.265625 -0.1177083,-0.3197916 0.3854167,-0.042708 0.7916667,-0.095833 0.7916667,-0.7614584 0,-0.1895833 -0.067708,-0.284375 -0.178125,-0.40625 C 3.284375,2.1385417 3.34375,1.9541667 3.2489583,1.7145833 3.1041667,1.6697917 2.7729167,1.9010417 2.7729167,1.9010417 2.6354167,1.8625 2.4864583,1.8427083 2.3395833,1.8427083 c -0.146875,0 -0.2958333,0.019792 -0.4333333,0.058333 0,0 -0.33125,-0.23125 -0.4760417,-0.1864584 C 1.3354167,1.953125 1.39375,2.1375 1.4125,2.1833333 1.3020833,2.3052083 1.25,2.4 1.25,2.5895833 c 0,0.6625 0.3885417,0.71875 0.7739583,0.7614584 -0.05,0.044792 -0.094792,0.121875 -0.1104166,0.2322916 -0.098958,0.044792 -0.3520834,0.121875 -0.503125,-0.1447916 -0.094792,-0.1645834 -0.265625,-0.178125 -0.265625,-0.178125 -0.16875003,-0.00208 -0.011458,0.10625 -0.011458,0.10625 C 1.2458333,3.41875 1.325,3.61875 1.325,3.61875 c 0.1010417,0.309375 0.584375,0.2052083 0.584375,0.2052083 0,0.1447917 0.00208,0.3802084 0.00208,0.4229167 0,0.044792 -0.03125,0.098958 -0.1197916,0.083333 C 1.1041667,4.1 0.62291667,3.4458333 0.62291667,2.68125 c 0,-0.95625 0.73125003,-1.68229167 1.68750003,-1.68229167 0.95625,0 1.73125,0.72604167 1.73125,1.68229167 0.00104,0.7645833 -0.465625,1.4197917 -1.153125,1.6489583 z M 1.8666667,3.69375 c -0.019792,0.00417 -0.038542,-0.00417 -0.040625,-0.017708 -0.00208,-0.015625 0.011458,-0.029167 0.03125,-0.033333 0.019792,-0.00208 0.038542,0.00625 0.040625,0.019792 0.00313,0.013542 -0.010417,0.027083 -0.03125,0.03125 z M 1.7677087,3.68438 c 0,0.013542 -0.015625,0.025 -0.036458,0.025 -0.022917,0.00208 -0.038542,-0.00937 -0.038542,-0.025 0,-0.013542 0.015625,-0.025 0.036458,-0.025 0.019792,-0.00208 0.038542,0.00938 0.038542,0.025 z M 1.625,3.6729167 C 1.6208333,3.6864583 1.6,3.6927083 1.5822917,3.6864583 1.5625,3.6822917 1.5489583,3.6666667 1.553125,3.653125 1.557295,3.639583 1.578125,3.633333 1.595833,3.6375 1.616666,3.64375 1.630208,3.659375 1.625,3.6729167 Z m -0.128125,-0.05625 c -0.00937,0.011458 -0.029167,0.00937 -0.044792,-0.00625 -0.015625,-0.013542 -0.019792,-0.033333 -0.00937,-0.042708 0.00937,-0.011458 0.029167,-0.00937 0.044792,0.00625 0.013542,0.013542 0.01875,0.034375 0.00937,0.042708 z M 1.4020833,3.521875 c -0.00937,0.00625 -0.027083,0 -0.038542,-0.015625 -0.011458,-0.015625 -0.011458,-0.033333 0,-0.040625 0.011458,-0.00938 0.029167,-0.00208 0.038542,0.013542 0.011458,0.015625 0.011458,0.034375 0,0.042708 z M 1.334375,3.4208333 C 1.325,3.4302083 1.309375,3.425 1.2979167,3.4145833 1.2864583,3.4010417 1.284375,3.3854167 1.29375,3.378125 c 0.00938,-0.00937 0.025,-0.00417 0.036458,0.00625 0.011458,0.013542 0.013542,0.029167 0.00417,0.036458 z M 1.2645833,3.34375 c -0.00417,0.00937 -0.017708,0.011458 -0.029167,0.00417 -0.013542,-0.00625 -0.019792,-0.017708 -0.015625,-0.027083 0.00417,-0.00625 0.015625,-0.00937 0.029167,-0.00417 0.013542,0.00729 0.019792,0.01875 0.015625,0.027083 z"
         id="path68031" />
    </symbol>
    <symbol
       id="linux"
       viewBox="0 0 448 512">
      <title
         id="linux-title">Linux</title>
      <path
         style="stroke-width:0.01041667"
         inkscape:connector-curvature="0"
         d="M 2.0427083,1.2875 C 2.040625,1.2729167 2.0625,1.2635417 2.0760417,1.2572917 2.09375,1.25 2.1166667,1.246875 2.1333333,1.25625 c 0.00417,0.00208 0.00833,0.00729 0.00625,0.011458 -0.00417,0.0125 -0.025,0.010417 -0.036458,0.016667 -0.010417,0.00521 -0.01875,0.017708 -0.03125,0.017708 C 2.0614583,1.303125 2.04375,1.2979167 2.0427083,1.2875 Z M 2.3,1.284375 c 0.010417,0.00521 0.01875,0.017708 0.03125,0.017708 0.011458,0 0.029167,-0.00417 0.030208,-0.015625 C 2.3635417,1.271875 2.3416667,1.2625 2.328125,1.25625 2.3104167,1.2489583 2.2875,1.2458333 2.2708333,1.2552083 2.2666667,1.2572917 2.2625,1.2625 2.2645833,1.2666667 2.2677083,1.2802083 2.2885417,1.278125 2.3,1.284375 Z m 2.2364583,3.23125 C 4.53125,4.6010417 4.46875,4.659375 4.3916667,4.70625 4.2364583,4.8 4.003125,4.8708333 3.8614583,5.0416667 L 3.834375,5.01875 3.8614583,5.0416667 C 3.7135417,5.2177083 3.53125,5.31875 3.3583333,5.3322917 3.1864583,5.3458333 3.025,5.2666667 2.9385417,5.0927083 v -0.00104 C 2.9270833,5.0697917 2.91875,5.0458333 2.9125,5.021875 2.6885417,5.034375 2.49375,4.9666667 2.3385417,4.9791667 2.109375,4.9916667 1.965625,5.046875 1.8354167,5.0479167 1.7854167,5.1583333 1.6864583,5.23125 1.565625,5.2583333 1.3989583,5.296875 1.1895833,5.2583333 0.98333333,5.15 L 1,5.11875 0.98333333,5.15 C 0.790625,5.0479167 0.54583333,5.0572917 0.365625,5.0197917 0.275,5.0010417 0.19583333,4.9677083 0.15625,4.8916667 0.11770833,4.815625 0.125,4.7114583 0.17916667,4.5614583 c 0.0177083,-0.053125 0.004167,-0.1322916 -0.008333,-0.2166666 -0.00625,-0.040625 -0.0125,-0.082292 -0.0125,-0.1229167 0,-0.044792 0.007292,-0.088542 0.0291667,-0.1291667 C 0.234375,4.0041667 0.31041667,3.9666667 0.38020833,3.9416667 0.45,3.9166667 0.51354167,3.9 0.55729167,3.8552083 0.61145833,3.7979167 0.6625,3.7052083 0.73020833,3.6447917 0.703125,3.465625 0.73229167,3.2760417 0.79479167,3.0895833 0.92604167,2.6947917 1.203125,2.3166667 1.4,2.0822917 1.5677083,1.84375 1.6166667,1.6520833 1.634375,1.4083333 1.6458333,1.0770833 1.3791667,-0.00208333 2.4458333,0 3.2885417,0.00104167 3.240625,0.88958333 3.2354167,1.3677083 c -0.00312,0.3135417 0.1697916,0.5260417 0.3479166,0.75 0.1583334,0.1875 0.365625,0.4614584 0.484375,0.775 0.096875,0.25625 0.134375,0.5395834 0.038542,0.8239584 0.014583,0.00521 0.029167,0.0125 0.042708,0.020833 0.014583,0.00833 0.028125,0.01875 0.041667,0.030208 C 4.259375,3.8260417 4.28125,3.9166667 4.3,4.0010417 4.3197917,4.0854167 4.3375,4.1645833 4.375,4.20625 4.490625,4.3354167 4.540625,4.4302083 4.5364583,4.515625 Z M 2.3,1.1364583 c 0.0375,0.00938 0.092708,0.025 0.1354167,0.045833 C 2.4135417,1.0552083 2.4822917,0.9375 2.5583333,0.94270833 2.6510417,0.94583333 2.703125,1.1041667 2.653125,1.2270833 2.6447917,1.246875 2.6239583,1.2625 2.6125,1.275 2.6822917,1.2989583 2.7270833,1.3177083 2.74375,1.3260417 2.8260417,1.2270833 2.85625,1.053125 2.7885417,0.90520833 2.6864583,0.68229167 2.4322917,0.678125 2.3302083,0.909375 2.296875,0.984375 2.2895833,1.0645833 2.3,1.1364583 Z M 1.81875,1.3322917 C 1.9,1.2729167 1.890625,1.2833333 1.8802083,1.275 1.796875,1.203125 1.8114583,0.98958333 1.8989583,0.98229167 c 0.065625,-0.005208 0.1125,0.11145833 0.1,0.20416663 0.032292,-0.021875 0.069792,-0.0375 0.10625,-0.047917 C 2.1229167,0.9375 2.0114583,0.78958333 1.90625,0.78958333 c -0.196875,0 -0.25,0.39062497 -0.0875,0.54270837 z M 1.7208333,1.55 c 0.015625,0.051042 0.063542,0.109375 0.153125,0.159375 0.08125,0.047917 0.125,0.1197917 0.2083334,0.15625 0.027083,0.011458 0.059375,0.019792 0.1,0.021875 C 2.3739583,1.8989583 2.4645833,1.7697917 2.5802083,1.7322917 2.7020833,1.69375 2.7895833,1.6177083 2.8166667,1.54375 2.85,1.4552083 2.7947917,1.390625 2.7072917,1.3541667 2.5895833,1.303125 2.5375,1.3 2.471875,1.2572917 2.3645833,1.1885417 2.2760417,1.1645833 2.2020833,1.1645833 c -0.15,0 -0.2416666,0.1020834 -0.290625,0.1479167 -0.00521,0.00521 -0.082292,0.061458 -0.146875,0.109375 C 1.7208333,1.45625 1.70625,1.4989583 1.7208333,1.55 Z M 1.371875,4.1833333 1.1677083,3.8125 C 1.096875,3.7166667 1.0239583,3.6583333 0.93958333,3.6458333 c -0.0802083,-0.0125 -0.13125,0.014583 -0.184375,0.071875 -0.05,0.053125 -0.0916667,0.128125 -0.14895833,0.1875 C 0.525,3.9729167 0.509375,3.9697917 0.40208333,4.0083333 0.33645833,4.03125 0.284375,4.05625 0.24791667,4.1260417 c -0.028125,0.052083 -0.021875,0.1270833 -0.009375,0.2083333 0.0125,0.082292 0.03125,0.1697917 0.00625,0.2489583 v 0.00208 c -0.0520833,0.1427083 -0.0520833,0.2260416 -0.0270833,0.275 C 0.3,5.0208333 0.703125,4.9239583 1.0145833,5.0885417 c 0.3270834,0.1708333 0.75625,0.178125 0.784375,-0.1875 C 1.8208333,4.6875 1.4708333,4.390625 1.371875,4.1833333 Z M 2.975,4.55625 C 3.0083333,4.4416667 3.040625,4.334375 3.0458333,4.2541667 3.0541667,4.0958333 3.0625,3.9552083 3.0916667,3.8385417 3.1239583,3.7072917 3.1885417,3.5979167 3.3145833,3.5541667 3.3385417,3.334375 3.509375,3.334375 3.7135417,3.4239583 c 0.196875,0.088542 0.2708333,0.1666667 0.2375,0.271875 0.010417,0 0.020833,-0.00104 0.04375,0 C 4.0489583,3.5197917 3.8458333,3.4041667 3.675,3.3333333 3.7052083,3.2083333 3.7,3.0822917 3.6708333,2.9614583 3.6083333,2.6979167 3.4354167,2.4635417 3.3041667,2.346875 3.2802087,2.345835 3.2822917,2.366667 3.3312497,2.414583 3.452083,2.5260414 3.717708,2.927083 3.573958,3.298958 3.5333333,3.2885417 3.4947917,3.2833333 3.4604167,3.284375 3.4052083,2.98125 3.278125,2.7302083 3.2145833,2.6114583 3.0947917,2.3885417 2.9072917,1.93125 2.8270833,1.6145833 2.7802083,1.68125 2.6979167,1.7385417 2.5947917,1.7708333 2.5458333,1.7864583 2.49375,1.828125 2.4291667,1.8645833 2.284375,1.9479167 2.1166667,1.95625 1.9875,1.8520833 1.940625,1.8145833 1.9041667,1.7729167 1.85625,1.7447917 1.839583,1.7354217 1.803125,1.7104167 1.791667,1.7020837 1.770834,2.0958337 1.507292,2.5906254 1.382292,2.8760421 c -0.086458,0.2052083 -0.1375,0.425 -0.14375,0.640625 C 1.0114583,3.2135417 1.1770833,2.8260417 1.265625,2.6583333 1.3645833,2.475 1.3802083,2.4239583 1.35625,2.4416667 1.2666667,2.5875 1.1270833,2.8197917 1.0729167,3.0583333 c -0.028125,0.1239584 -0.033333,0.25 0.00313,0.3666667 0.036458,0.1166667 0.115625,0.2239583 0.25625,0.3114583 0,0 0.2583333,0.1489584 0.3989583,0.3385417 0.077083,0.1041667 0.1010417,0.1947917 0.077083,0.259375 -0.026042,0.069792 -0.1,0.092708 -0.1739583,0.092708 0.05,0.0625 0.1072917,0.1354167 0.15,0.2041667 0.3916667,0.2677083 0.85625,0.1635417 1.190625,-0.075 z M 4.3229167,4.2552083 C 4.21875,4.1375 4.2479167,3.9104167 4.1447917,3.821875 4.0729167,3.759375 4.003125,3.765625 3.909375,3.76875 3.829167,3.860417 3.640625,3.9729167 3.509375,3.9385417 3.3895833,3.9083333 3.321875,3.76875 3.3135417,3.63125 3.3104167,3.6333333 3.30625,3.634375 3.303125,3.6364583 3.2291667,3.6770833 3.1875,3.7489583 3.1604167,3.85625 3.134375,3.9625 3.125,4.1010417 3.1166667,4.259375 c -0.00729,0.1229167 -0.064583,0.275 -0.103125,0.4229167 -0.036458,0.1375 -0.060417,0.2625 -0.011458,0.378125 0.075,0.1510416 0.203125,0.2125 0.3510417,0.2010416 C 3.5010417,5.25 3.6697917,5.159375 3.8072917,4.9958333 4.0364583,4.71875 4.45625,4.6864583 4.465625,4.5114583 4.46875,4.4583333 4.4333333,4.3760417 4.3229167,4.2552083 Z m -2.5177084,-2.70625 c 0.020833,0.019792 0.048958,0.046875 0.083333,0.073958 0.06875,0.054167 0.1645833,0.1104166 0.284375,0.1104166 0.1208333,0 0.234375,-0.061458 0.33125,-0.1125 0.051042,-0.027083 0.113542,-0.072916 0.154167,-0.1083329 0.040625,-0.035417 0.061458,-0.065625 0.032292,-0.06875 -0.029167,-0.00313 -0.027083,0.027083 -0.0625,0.053125 -0.045833,0.033333 -0.1010417,0.077083 -0.1447917,0.1020833 -0.077083,0.04375 -0.203125,0.10625 -0.3114583,0.10625 -0.1083333,0 -0.1947917,-0.05 -0.259375,-0.1010416 C 1.8802083,1.578125 1.853125,1.5520833 1.8322917,1.5322917 1.8166667,1.5177083 1.8125,1.484375 1.7875,1.48125 1.772917,1.48021 1.76875,1.519792 1.8052083,1.5489583 Z"
         id="path68243" />
    </symbol>
    <symbol
       id="copy"
       viewBox="0 0 448 512">
      <title
         id="copy-title">Copy</title>
      <path
         style="stroke-width:0.01041667"
         inkscape:connector-curvature="0"
         d="M 4.5202187,0.68688542 3.9797812,0.14644792 A 0.5,0.5 0 0 0 3.6262292,0 H 1.8333333 c -0.2761458,0 -0.5,0.22385417 -0.5,0.5 V 1 H 0.5 C 0.22385417,1 0,1.2238542 0,1.5 v 3.3333333 c 0,0.2761459 0.22385417,0.5 0.5,0.5 h 2.3333333 c 0.2761459,0 0.5,-0.2238541 0.5,-0.5 v -0.5 h 0.8333334 c 0.2761458,0 0.5,-0.2238541 0.5,-0.5 V 1.0404375 A 0.5,0.5 0 0 0 4.5202187,0.68688542 Z M 2.7708333,4.8333333 H 0.5625 A 0.0625,0.0625 0 0 1 0.5,4.7708333 V 1.5625 A 0.0625,0.0625 0 0 1 0.5625,1.5 h 0.7708333 v 2.3333333 c 0,0.2761459 0.2238542,0.5 0.5,0.5 h 1 v 0.4375 a 0.0625,0.0625 0 0 1 -0.0625,0.0625 z m 1.3333334,-1 H 1.8958333 a 0.0625,0.0625 0 0 1 -0.0625,-0.0625 V 0.5625 A 0.0625,0.0625 0 0 1 1.8958333,0.5 H 3 v 0.9166667 c 0,0.1380729 0.1119271,0.25 0.25,0.25 h 0.9166667 v 2.1041666 a 0.0625,0.0625 0 0 1 -0.0625,0.0625 z m 0.0625,-2.6666666 H 3.5 V 0.5 h 0.1003333 c 0.016573,0 0.032469,0.006583 0.044198,0.0183021 l 0.5038333,0.5038333 a 0.0625,0.0625 0 0 1 0.018302,0.044198 z"
         id="path68986" />
    </symbol>
    <symbol
       id="file-code"
       viewBox="0 0 384 512">
      <title
         id="file-code-title">Code File</title>
      <path
         style="stroke-width:0.01041667"
         inkscape:connector-curvature="0"
         d="M 3.8535521,1.0202187 2.9797812,0.14644792 A 0.5,0.5 0 0 0 2.6262292,0 H 0.5 C 0.22385417,0 0,0.22385417 0,0.5 v 4.3333333 c 0,0.2761459 0.22385417,0.5 0.5,0.5 h 3 c 0.2761458,0 0.5,-0.2238541 0.5,-0.5 V 1.3737708 A 0.5,0.5 0 0 0 3.8535521,1.0202187 Z M 3.4595625,1.3333333 H 2.6666667 V 0.5404375 Z M 0.5,4.8333333 V 0.5 h 1.6666667 v 1.0833333 c 0,0.1380729 0.111927,0.25 0.25,0.25 H 3.5 v 3 z M 1.5591354,3.6342187 1.2172292,3.3333333 1.559125,3.0324479 a 0.09159375,0.09159375 0 0 0 0.0063,-0.1315 L 1.3841458,2.7075729 c -0.03525,-0.037635 -0.093375,-0.038146 -0.1295625,-0.00418 L 0.65395833,3.2664583 c -0.0385729,0.036188 -0.0385833,0.097573 1.042e-5,0.13375 L 1.2545833,3.9632812 a 0.09102083,0.09102083 0 0 0 0.062625,0.024802 0.09110417,0.09110417 0 0 0 0.066948,-0.028979 L 1.5654375,3.7657396 a 0.09161458,0.09161458 0 0 0 -0.0063,-0.1315209 z M 2.4370937,2.3024479 2.1829167,2.2286562 a 0.091625,0.091625 0 0 0 -0.1135938,0.062479 l -0.5689062,1.9595 c -0.014094,0.048542 0.013938,0.0995 0.062479,0.1135938 l 0.2541979,0.073792 c 0.04875,0.014115 0.099552,-0.014104 0.1135938,-0.062479 l 0.568875,-1.9595 C 2.5136667,2.3675 2.4856354,2.3165417 2.4370937,2.3024479 Z M 3.3460312,3.2664583 2.7454271,2.7033854 c -0.036729,-0.034448 -0.094781,-0.032969 -0.1295729,0.00418 L 2.4345729,2.9009271 a 0.09161458,0.09161458 0 0 0 0.0063,0.1315104 L 2.7827708,3.3333333 2.440875,3.6342187 a 0.09159375,0.09159375 0 0 0 -0.0063,0.1315001 l 0.1812813,0.193375 a 0.09163542,0.09163542 0 0 0 0.1295729,0.00418 h -1.04e-5 l 0.600625,-0.5630729 c 0.038573,-0.036177 0.038573,-0.097562 -1.05e-5,-0.1337396 z"
         id="path69034" />
    </symbol>
    <symbol
       id="file-excel"
       viewBox="0 0 384 512">
      <title
         id="file-excel-title">Excel File</title>
      <path
         style="stroke-width:0.01041667"
         inkscape:connector-curvature="0"
         d="M 3.853125,1.0197917 2.9791667,0.14583333 c -0.09375,-0.09375 -0.2208334,-0.146875 -0.353125,-0.146875 H 0.5 C 0.22395833,0 0,0.22395833 0,0.5 v 4.3333333 c 0,0.2760417 0.22395833,0.5 0.5,0.5 h 3 c 0.2760417,0 0.5,-0.2239583 0.5,-0.5 V 1.3739583 C 4,1.2416667 3.946875,1.1135417 3.853125,1.0197917 Z M 3.459375,1.3333333 H 2.6666667 V 0.540625 Z M 0.5,4.8333333 V 0.5 h 1.6666667 v 1.0833333 c 0,0.1385417 0.1114583,0.25 0.25,0.25 H 3.5 v 3 z m 2.2083333,-2.5 h -0.3 c -0.045833,0 -0.0875,0.025 -0.109375,0.065625 C 2.1114583,2.74375 2.0677083,2.840625 2.0010417,3 1.85625,2.696875 1.9291667,2.8197917 1.703125,2.3989583 1.68125,2.3583333 1.6385417,2.3333333 1.5927083,2.3333333 H 1.2916667 c -0.096875,0 -0.15625,0.1041667 -0.1083334,0.1875 l 0.4822917,0.8125 -0.4822917,0.8125 c -0.048958,0.083333 0.011458,0.1875 0.1083334,0.1875 h 0.3010416 c 0.045833,0 0.0875,-0.025 0.109375,-0.065625 C 1.928125,3.8510417 1.9416667,3.7989583 2,3.6666667 2.1552083,3.98125 2.061458,3.8322917 2.2979167,4.2677083 c 0.021875,0.040625 0.064583,0.065625 0.1104166,0.065625 h 0.3 c 0.096875,0 0.15625,-0.1041666 0.1083334,-0.1875 l -0.4833334,-0.8125 c 0.00729,-0.011458 0.315625,-0.5260416 0.4822917,-0.8125 0.048958,-0.083333 -0.011458,-0.1875 -0.1072917,-0.1875 z"
         id="path69038" />
    </symbol>
    <symbol
       id="database"
       viewBox="0 0 448 512">
      <title
         id="database-title">Database</title>
      <path
         style="stroke-width:0.01041667"
         inkscape:connector-curvature="0"
         d="M 4.6666667,0.76190625 V 1.2380937 C 4.6666667,1.6577396 3.6215312,2 2.3333333,2 1.0451354,2 0,1.6577396 0,1.2380937 V 0.76190625 C 0,0.34226042 1.0451354,0 2.3333333,0 3.6215313,0 4.6666667,0.34226042 4.6666667,0.76190625 Z m 0,1.07142705 v 1.0714271 c 0,0.4196458 -1.0451355,0.7619063 -2.3333334,0.7619063 C 1.0451354,3.6666667 0,3.3244062 0,2.9047604 V 1.8333333 c 0.50130208,0.3452396 1.4188333,0.5059584 2.3333333,0.5059584 0.9145,0 1.8320209,-0.1607188 2.3333334,-0.5059584 z m 0,1.6666667 v 1.0714271 c 0,0.4196458 -1.0451355,0.7619062 -2.3333334,0.7619062 C 1.0451354,5.3333333 0,4.9910729 0,4.5714271 V 3.5 c 0.50130208,0.3452396 1.4188333,0.5059583 2.3333333,0.5059583 0.9145,0 1.8320209,-0.1607187 2.3333334,-0.5059583 z"
         id="path69865" />
    </symbol>
    <symbol
       id="file-word"
       viewBox="0 0 384 512">
      <title
         id="file-word-title">Word File</title>
      <path
         style="stroke-width:0.01041667"
         inkscape:connector-curvature="0"
         d="M 3.853125,1.0197917 2.9791667,0.14583333 c -0.09375,-0.09375 -0.2208334,-0.146875 -0.353125,-0.146875 H 0.5 C 0.22395833,0 0,0.22395833 0,0.5 v 4.3333333 c 0,0.2760417 0.22395833,0.5 0.5,0.5 h 3 c 0.2760417,0 0.5,-0.2239583 0.5,-0.5 V 1.3739583 C 4,1.2416667 3.946875,1.1135417 3.853125,1.0197917 Z M 3.459375,1.3333333 H 2.6666667 V 0.540625 Z M 0.5,4.8333333 V 0.5 h 1.6666667 v 1.0833333 c 0,0.1385417 0.1114583,0.25 0.25,0.25 H 3.5 v 3 z M 2.7927083,2.6666667 c -0.059375,0 -0.1104166,0.041667 -0.121875,0.098958 C 2.45625,3.7833333 2.4583333,3.759375 2.4520833,3.84375 2.45,3.83125 2.4479167,3.8166667 2.4447917,3.7989583 2.4364583,3.7458333 2.4479167,3.8010417 2.1989583,2.7625 2.1854167,2.70625 2.1354167,2.6666667 2.0770833,2.6666667 H 1.9385417 c -0.057292,0 -0.1072917,0.039583 -0.121875,0.094792 -0.2541667,1.03125 -0.25,1.0020834 -0.2583334,1.0802084 C 1.5572917,3.8302083 1.55625,3.815625 1.553125,3.7979167 1.5458333,3.74375 1.40625,3.034375 1.3541667,2.7666667 1.3427083,2.7083333 1.2916667,2.665625 1.23125,2.665625 h -0.175 C 0.975,2.665625 0.915625,2.741667 0.934375,2.8197917 1.0177083,3.159375 1.2125,3.9604167 1.2802083,4.2364583 1.29375,4.2927083 1.34375,4.33125 1.4020833,4.33125 h 0.2625 c 0.057292,0 0.1072917,-0.038542 0.1208334,-0.094792 L 1.971875,3.4927083 C 1.9875,3.428125 1.9979167,3.3677083 2.003125,3.3125 l 0.030208,0.1802083 c 0.00104,0.00417 0.13125,0.5260417 0.1864584,0.74375 0.013542,0.055208 0.063542,0.094792 0.1208333,0.094792 h 0.2572917 c 0.057292,0 0.1072916,-0.038542 0.1208333,-0.094792 C 2.9354167,3.3833333 3.0333333,2.996875 3.078125,2.8197917 3.0979167,2.740625 3.0385417,2.6645833 2.9572917,2.6645833 H 2.7927083 Z"
         id="path69058" />
    </symbol>
    <symbol
       id="images"
       viewBox="0 0 576 512">
      <title
         id="images-title">Images</title>
      <path
         style="stroke-width:0.01041667"
         inkscape:connector-curvature="0"
         d="M 5,4.3333333 V 4.5 C 5,4.7761458 4.7761458,5 4.5,5 h -4 C 0.22385417,5 0,4.7761458 0,4.5 V 1.8333333 c 0,-0.2761458 0.22385417,-0.5 0.5,-0.5 h 0.16666667 v 0.5 H 0.5625 A 0.0625,0.0625 0 0 0 0.5,1.8958333 V 4.4375 A 0.0625,0.0625 0 0 0 0.5625,4.5 h 3.875 A 0.0625,0.0625 0 0 0 4.5,4.4375 V 4.3333333 Z M 5.4375,0.83333333 H 1.5625 A 0.0625,0.0625 0 0 0 1.5,0.89583333 V 3.4375 A 0.0625,0.0625 0 0 0 1.5625,3.5 h 3.875 A 0.0625,0.0625 0 0 0 5.5,3.4375 V 0.89583333 a 0.0625,0.0625 0 0 0 -0.0625,-0.0625 z m 0.0625,-0.5 c 0.2761458,0 0.5,0.22385417 0.5,0.5 V 3.5 C 6,3.7761458 5.7761458,4 5.5,4 h -4 C 1.2238542,4 1,3.7761458 1,3.5 V 0.83333333 c 0,-0.27614583 0.2238542,-0.5 0.5,-0.5 z M 2.75,1.5 c 0,0.2301146 -0.1865521,0.4166667 -0.4166667,0.4166667 -0.2301145,0 -0.4166666,-0.1865521 -0.4166666,-0.4166667 0,-0.2301146 0.1865521,-0.4166667 0.4166666,-0.4166667 C 2.5634479,1.0833333 2.75,1.2698854 2.75,1.5 Z M 2,2.5 2.4116146,2.0883854 c 0.048812,-0.048812 0.1279583,-0.048812 0.1767812,0 L 3,2.5 4.0782812,1.4217188 c 0.048812,-0.048813 0.1279584,-0.048813 0.1767813,0 L 5,2.1666667 V 3 H 2 Z"
         id="path69162" />
    </symbol>
    <symbol
       id="list-alt"
       viewBox="0 0 512 512">
      <title
         id="list-alt-title">list-alt</title>
      <path
         style="stroke-width:0.01041667"
         inkscape:connector-curvature="0"
         d="M 4.8333333,0.33333333 H 0.5 c -0.27614583,0 -0.5,0.22385417 -0.5,0.5 V 4.5 C 0,4.7761458 0.22385417,5 0.5,5 h 4.3333333 c 0.2761459,0 0.5,-0.2238542 0.5,-0.5 V 0.83333333 c 0,-0.27614583 -0.2238541,-0.5 -0.5,-0.5 z M 4.7708333,4.5 H 0.5625 A 0.0625,0.0625 0 0 1 0.5,4.4375 V 0.89583333 a 0.0625,0.0625 0 0 1 0.0625,-0.0625 h 4.2083333 a 0.0625,0.0625 0 0 1 0.0625,0.0625 V 4.4375 A 0.0625,0.0625 0 0 1 4.7708333,4.5 Z m -0.4375,-0.9583333 v 0.25 c 0,0.069031 -0.055969,0.125 -0.125,0.125 H 2.125 c -0.069031,0 -0.125,-0.055969 -0.125,-0.125 v -0.25 c 0,-0.069031 0.055969,-0.125 0.125,-0.125 h 2.0833333 c 0.069031,0 0.125,0.055969 0.125,0.125 z m 0,-1 v 0.25 c 0,0.069031 -0.055969,0.125 -0.125,0.125 H 2.125 c -0.069031,0 -0.125,-0.055969 -0.125,-0.125 v -0.25 c 0,-0.069031 0.055969,-0.125 0.125,-0.125 h 2.0833333 c 0.069031,0 0.125,0.055969 0.125,0.125 z m 0,-1 v 0.25 c 0,0.069031 -0.055969,0.125 -0.125,0.125 H 2.125 c -0.069031,0 -0.125,-0.055969 -0.125,-0.125 v -0.25 c 0,-0.069031 0.055969,-0.125 0.125,-0.125 h 2.0833333 c 0.069031,0 0.125,0.055969 0.125,0.125 z m -2.625,0.125 c 0,0.2071041 -0.1678958,0.375 -0.375,0.375 -0.2071041,0 -0.37499997,-0.1678959 -0.37499997,-0.375 0,-0.2071042 0.16789587,-0.375 0.37499997,-0.375 0.2071042,0 0.375,0.1678958 0.375,0.375 z m 0,1 c 0,0.2071041 -0.1678958,0.375 -0.375,0.375 -0.2071041,0 -0.37499997,-0.1678959 -0.37499997,-0.375 0,-0.2071042 0.16789587,-0.375 0.37499997,-0.375 0.2071042,0 0.375,0.1678958 0.375,0.375 z m 0,1 c 0,0.2071041 -0.1678958,0.375 -0.375,0.375 -0.2071041,0 -0.37499997,-0.1678959 -0.37499997,-0.375 0,-0.2071042 0.16789587,-0.375 0.37499997,-0.375 0.2071042,0 0.375,0.1678958 0.375,0.375 z"
         id="path69182" />
    </symbol>
    <symbol
       id="file-alt"
       viewBox="0 0 384 512">
      <title
         id="file-alt-title">Alternate File</title>
      <path
         style="stroke-width:0.01041667"
         inkscape:connector-curvature="0"
         d="M 3,2.5833333 V 2.875 C 3,2.94375 2.94375,3 2.875,3 H 1.125 C 1.05625,3 1,2.94375 1,2.875 V 2.5833333 c 0,-0.06875 0.05625,-0.125 0.125,-0.125 h 1.75 c 0.06875,0 0.125,0.05625 0.125,0.125 z m -0.125,0.75 h -1.75 c -0.06875,0 -0.125,0.05625 -0.125,0.125 V 3.75 c 0,0.06875 0.05625,0.125 0.125,0.125 h 1.75 C 2.94375,3.875 3,3.81875 3,3.75 V 3.4583333 c 0,-0.06875 -0.05625,-0.125 -0.125,-0.125 z M 4,1.3739583 v 3.459375 c 0,0.2760417 -0.2239583,0.5 -0.5,0.5 h -3 c -0.27604167,0 -0.5,-0.2239583 -0.5,-0.5 V 0.5 C 0,0.22395833 0.22395833,0 0.5,0 h 2.1260417 c 0.1322916,0 0.259375,0.053125 0.353125,0.146875 L 3.853125,1.0208333 C 3.946875,1.1135417 4,1.2416667 4,1.3739583 Z M 2.6666667,0.540625 V 1.3333333 H 3.459375 Z M 3.5,4.8333333 v -3 H 2.4166667 c -0.1385417,0 -0.25,-0.1114583 -0.25,-0.25 V 0.5 H 0.5 v 4.3333333 z"
         id="path69022" />
    </symbol>
    <symbol
       id="chart-bar"
       viewBox="0 0 512 512">
      <title
         id="chart-bar-title">Bar Chart</title>
      <path
         style="stroke-width:0.01041667"
         inkscape:connector-curvature="0"
         d="m 5.2083333,4.1666667 c 0.06875,0 0.125,0.05625 0.125,0.125 v 0.25 c 0,0.06875 -0.05625,0.125 -0.125,0.125 H 0.125 c -0.06875,0 -0.125,-0.05625 -0.125,-0.125 V 0.79166667 c 0,-0.06875 0.05625,-0.125 0.125,-0.125 h 0.25 c 0.06875,0 0.125,0.05625 0.125,0.125 V 4.1666667 Z M 1.5,3.5416667 v -0.75 c 0,-0.06875 -0.05625,-0.125 -0.125,-0.125 h -0.25 c -0.06875,0 -0.125,0.05625 -0.125,0.125 v 0.75 c 0,0.06875 0.05625,0.125 0.125,0.125 h 0.25 c 0.06875,0 0.125,-0.05625 0.125,-0.125 z m 1,0 V 1.4583333 c 0,-0.06875 -0.05625,-0.125 -0.125,-0.125 h -0.25 c -0.06875,0 -0.125,0.05625 -0.125,0.125 v 2.0833334 c 0,0.06875 0.05625,0.125 0.125,0.125 h 0.25 c 0.06875,0 0.125,-0.05625 0.125,-0.125 z m 1,0 V 2.125 C 3.5,2.05625 3.44375,2 3.375,2 H 3.125 C 3.05625,2 3,2.05625 3,2.125 v 1.4166667 c 0,0.06875 0.05625,0.125 0.125,0.125 h 0.25 c 0.06875,0 0.125,-0.05625 0.125,-0.125 z m 1,0 V 1.125 C 4.5,1.05625 4.44375,1 4.375,1 H 4.125 C 4.05625,1 4,1.05625 4,1.125 v 2.4166667 c 0,0.06875 0.05625,0.125 0.125,0.125 h 0.25 c 0.06875,0 0.125,-0.05625 0.125,-0.125 z"
         id="path68938" />
    </symbol>
    <symbol
       viewBox="0 0 64 64"
       id="emoji-1f355">
      <title
         id="title19706">1f355</title>
      <path
         style="fill:#f6da77;stroke-width:0.01041667"
         inkscape:connector-curvature="0"
         d="M 0.64845833,0.49025 C 0.64759375,0.23683333 0.43246875,0.02169792 0.17801042,0.020875 L 0.02348958,0.64583333 Z"
         id="path19708" />
      <path
         style="fill:#860d16;stroke-width:0.01041667"
         inkscape:connector-curvature="0"
         d="m 0.56770833,0.51035417 0.0213854,-0.003688 C 0.57894792,0.30833333 0.437125,0.10115625 0.16159375,0.0804375 l -0.003552,0.021125 C 0.37002083,0.128 0.5411875,0.29913542 0.567625,0.5103125"
         id="path19710" />
      <path
         style="fill:#c98e52;stroke-width:0.01041667"
         inkscape:connector-curvature="0"
         d="M 0.58875,0.50667708 0.6484583,0.49176038 C 0.64846875,0.2371875 0.43210417,0.02082292 0.17647917,0.02082292 l -0.0149271,0.05958333 c 0.24415625,0.02311458 0.40397917,0.18290625 0.4271875,0.42626042"
         id="path19712" />
      <g
         style="fill:#83bf4f"
         id="g19720">
        <path
           style="stroke-width:0.01041667"
           inkscape:connector-curvature="0"
           d="m 0.14022917,0.433875 c -0.0173021,0 -0.0335312,-0.006698 -0.04571875,-0.0188646 -0.0050104,-0.00499 -0.0050208,-0.013125 -1.042e-5,-0.018125 0.0048437,-0.004865 0.01332292,-0.004885 0.01815625,0 0.0146875,0.0146667 0.0404375,0.0146667 0.0551667,0 0.007344,-0.007344 0.011375,-0.0171146 0.011375,-0.0275104 0,-0.0104167 -0.004042,-0.0201979 -0.0113854,-0.0275313 -0.005,-0.005 -0.005,-0.0131458 -1.042e-5,-0.018125 0.004823,-0.004865 0.0133333,-0.004844 0.0181771,0 0.0121771,0.0121667 0.0189063,0.0283854 0.0189167,0.0456354 -1.041e-5,0.01725 -0.006729,0.0334687 -0.0189063,0.0456354 -0.0122083,0.0121979 -0.0284583,0.0188854 -0.0457604,0.0188854"
           id="path19714" />
        <path
           style="stroke-width:0.01041667"
           inkscape:connector-curvature="0"
           d="m 0.40176042,0.22811458 c 3.75e-4,0.001708 3.5416e-4,0.003437 -4.167e-5,0.005135 -6.6667e-4,0.003031 -0.002521,0.005594 -0.005167,0.007229 -0.002615,0.001646 -0.00576,0.002167 -0.008781,0.001479 -0.008302,-0.001927 -0.0168542,-5.2083e-4 -0.0241354,0.00401 -0.007229,0.00451 -0.0122917,0.0115521 -0.0141979,0.0198333 -0.003906,0.0166875 0.007365,0.0344271 0.0238958,0.0382708 0.006031,0.001427 0.0100833,0.007917 0.008719,0.0138958 -0.001448,0.006271 -0.007708,0.0101562 -0.0139688,0.008729 C 0.3475,0.32191667 0.33122917,0.3055 0.32663542,0.28482292 c -0.001812,-0.008052 -0.001729,-0.0162396 1.4583e-4,-0.0243021 0.003312,-0.0143229 0.0120521,-0.0265208 0.0245833,-0.0342917 0.0125104,-0.007833 0.0273542,-0.0102917 0.0416667,-0.006958 0.004312,0.001042 0.007771,0.00449 0.008708,0.008802"
           id="path19716" />
        <path
           style="stroke-width:0.01041667"
           inkscape:connector-curvature="0"
           d="m 0.45747917,0.53001042 c -0.001615,3.0208e-4 -0.00326,2.3958e-4 -0.004844,-1.875e-4 -0.002854,-7.7084e-4 -0.00524,-0.002583 -0.006708,-0.005146 -0.001448,-0.002521 -0.001854,-0.00549 -0.001083,-0.008344 0.002115,-0.00775 0.001042,-0.0158646 -0.00299,-0.0228646 -0.00401,-0.007021 -0.0105208,-0.0120208 -0.0183333,-0.0141042 -0.0156458,-0.00425 -0.0328542,0.00576 -0.0370521,0.0212188 -0.001542,0.005677 -0.007823,0.009281 -0.0134896,0.007771 -0.005865,-0.001563 -0.009333,-0.007625 -0.007781,-0.0134688 0.00526,-0.0192708 0.0213333,-0.0340625 0.0410521,-0.0376979 0.007688,-0.001427 0.0154479,-0.001083 0.0230208,9.5833e-4 0.0134688,0.003625 0.0247083,0.0122708 0.0316875,0.0243542 0.006948,0.0121042 0.008781,0.0261667 0.005146,0.0395729 -0.001094,0.004073 -0.00449,0.007187 -0.008625,0.007937"
           id="path19718" />
      </g>
      <g
         style="fill:#b21725"
         id="g19732">
        <path
           style="stroke-width:0.01041667"
           inkscape:connector-curvature="0"
           d="m 0.38666667,0.37708333 c 0.0144896,0.0426458 -0.008823,0.0888646 -0.0520104,0.1031875 -0.0433229,0.0143229 -0.0901458,-0.008625 -0.1046875,-0.0513542 -0.0145417,-0.042625 0.008781,-0.0888646 0.0520312,-0.1032083 0.0432917,-0.0143021 0.0900833,0.008698 0.1046875,0.051375"
           id="path19722" />
        <path
           style="stroke-width:0.01041667"
           inkscape:connector-curvature="0"
           d="m 0.51627083,0.38498958 c 0.008667,0.0256354 -0.005302,0.0534062 -0.03125,0.0620312 -0.0260625,0.008583 -0.0542083,-0.005208 -0.0629167,-0.0308438 -0.008688,-0.0256562 0.005323,-0.0534271 0.0313542,-0.0620521 0.0259375,-0.008542 0.0541146,0.00525 0.0628125,0.0308646"
           id="path19724" />
        <path
           style="stroke-width:0.01041667"
           inkscape:connector-curvature="0"
           d="m 0.30229167,0.19802083 c 0.0118542,0.034875 -0.007229,0.0726979 -0.0425521,0.0844167 -0.0354167,0.0117396 -0.07375,-0.007042 -0.0856563,-0.0419792 -0.0118229,-0.0348646 0.00726,-0.0726979 0.0425833,-0.0843854 0.0353958,-0.0116979 0.0736458,0.007104 0.085625,0.0419792"
           id="path19726" />
        <path
           style="stroke-width:0.01041667"
           inkscape:connector-curvature="0"
           d="M 0.35791667,0.56260417 0.25697917,0.58775 c -0.00901,-0.0265729 0.009323,-0.0593646 0.0367813,-0.0663229 0.0332917,-0.008427 0.0551042,0.014625 0.0641562,0.0411771"
           id="path19728" />
        <path
           style="stroke-width:0.01041667"
           inkscape:connector-curvature="0"
           d="M 0.204125,0.48989583 C 0.2163021,0.52580203 0.196677,0.56470833 0.1603021,0.57679163 0.12376042,0.588875 0.08434375,0.56955208 0.072125,0.53352083 0.0599375,0.49763542 0.07955208,0.45872917 0.11591667,0.446625 c 0.0364375,-0.012 0.0758854,0.007365 0.0882083,0.0432708"
           id="path19730" />
      </g>
      <path
         style="fill:#e0a763;stroke-width:0.01041667"
         inkscape:connector-curvature="0"
         d="m 0.16161458,0.0804375 c 0.0551875,9.2708e-4 0.11077084,0.01126042 0.1629375,0.03177083 0.0521875,0.0202917 0.10063542,0.0514271 0.14077084,0.0911562 0.0399271,0.0399375 0.0712604,0.0882292 0.0917188,0.14040625 0.0206667,0.0520833 0.0311042,0.10770834 0.0320312,0.16290625 C 0.5795,0.45233333 0.5648125,0.39935417 0.54208333,0.35021875 0.51933333,0.30115625 0.48884375,0.25594792 0.45063542,0.21816667 0.41272917,0.18010417 0.36736458,0.14977083 0.31822917,0.12716667 0.26896875,0.1045625 0.21596875,0.09 0.16166667,0.08047917"
         id="path19734" />
      <g
         style="fill:#ffab41"
         id="g19774">
        <path
           style="stroke-width:0.01041657"
           inkscape:connector-curvature="0"
           d="m 0.17535463,0.14013462 0.02083,-0.02083 0.02083,0.02083 -0.02083,0.02083 z"
           id="path19736" />
        <path
           style="stroke-width:0.01041657"
           inkscape:connector-curvature="0"
           d="m 0.30992004,0.19810323 0.02083,-0.02083 0.02083,0.02083 -0.02083,0.02083 z"
           id="path19738" />
        <path
           style="stroke-width:0.01041657"
           inkscape:connector-curvature="0"
           d="m 0.13488613,0.27536682 0.02083,-0.02083 0.02083,0.02083 -0.02083,0.02083 z"
           id="path19740" />
        <path
           style="stroke-width:0.01041657"
           inkscape:connector-curvature="0"
           d="m 0.20580513,0.33421064 0.02083,-0.02083 0.02083,0.02083 -0.02083,0.02083 z"
           id="path19742" />
        <path
           style="stroke-width:0.01041657"
           inkscape:connector-curvature="0"
           d="m 0.39065512,0.33712514 0.02083,-0.02083 0.02083,0.02083 -0.02083,0.02083 z"
           id="path19744" />
        <path
           style="stroke-width:0.01041657"
           inkscape:connector-curvature="0"
           d="m 0.51095778,0.48453618 0.02083,-0.02083 0.02083,0.02083 -0.02083,0.02083 z"
           id="path19746" />
        <path
           style="stroke-width:0.01041657"
           inkscape:connector-curvature="0"
           d="m 0.20487732,0.46492189 0.02083,-0.02083 0.02083,0.02083 -0.02083,0.02083 z"
           id="path19748" />
        <path
           style="stroke-width:0.01041657"
           inkscape:connector-curvature="0"
           d="m 0.21886016,0.54045936 0.02083,-0.02083 0.02083,0.02083 -0.02083,0.02083 z"
           id="path19750" />
        <path
           style="stroke-width:0.01041657"
           inkscape:connector-curvature="0"
           d="m 0.04541656,0.60623288 0.02082999,-0.02083 0.02082999,0.02083 -0.02082999,0.02083 z"
           id="path19752" />
        <path
           style="stroke-width:0.01041657"
           inkscape:connector-curvature="0"
           d="m 0.14506385,0.1805493 0.0156225,-0.0156225 0.0156225,0.0156225 -0.0156225,0.0156225 z"
           id="path19754" />
        <path
           style="stroke-width:0.01041657"
           inkscape:connector-curvature="0"
           d="m 0.27706926,0.29050709 0.0156225,-0.0156225 0.0156225,0.0156225 -0.0156225,0.0156225 z"
           id="path19756" />
        <path
           style="stroke-width:0.01041657"
           inkscape:connector-curvature="0"
           d="m 0.41730623,0.29104046 0.0156225,-0.0156225 0.0156225,0.0156225 -0.0156225,0.0156225 z"
           id="path19758" />
        <path
           style="stroke-width:0.01041657"
           inkscape:connector-curvature="0"
           d="m 0.14014017,0.37695198 0.0156225,-0.0156225 0.0156225,0.0156225 -0.0156225,0.0156225 z"
           id="path19760" />
        <path
           style="stroke-width:0.01041657"
           inkscape:connector-curvature="0"
           d="M 0.07713086,0.43833251 0.09275335,0.42271002 0.10837584,0.43833251 0.09275335,0.453955 Z"
           id="path19762" />
        <path
           style="stroke-width:0.01041657"
           inkscape:connector-curvature="0"
           d="m 0.05288394,0.56781387 0.01562249,-0.0156225 0.0156225,0.0156225 -0.0156225,0.0156225 z"
           id="path19764" />
        <path
           style="stroke-width:0.01041657"
           inkscape:connector-curvature="0"
           d="m 0.18648688,0.57559966 0.0156321,-0.0156276 0.0156277,0.0156321 -0.0156321,0.0156276 z"
           id="path19766" />
        <path
           style="stroke-width:0.01041657"
           inkscape:connector-curvature="0"
           d="m 0.32031319,0.50346008 0.0156225,-0.0156225 0.0156225,0.0156225 -0.0156225,0.0156225 z"
           id="path19768" />
        <path
           style="stroke-width:0.01041657"
           inkscape:connector-curvature="0"
           d="M 0.3864005,0.53021735 0.402023,0.51459485 0.4176455,0.53021735 0.402023,0.54583985 Z"
           id="path19770" />
        <path
           style="stroke-width:0.01041657"
           inkscape:connector-curvature="0"
           d="m 0.47277154,0.47027094 0.0156225,-0.0156225 0.0156225,0.0156225 -0.0156225,0.0156225 z"
           id="path19772" />
      </g>
    </symbol>
    <symbol
       viewBox="0 0 64 64"
       id="emoji-1f4cb">
      <title
         id="title45535">1f4cb</title>
      <path
         style="fill:#d3976e;stroke-width:0.01041667"
         inkscape:connector-curvature="0"
         d="m 0.37182292,0.64802083 c -0.0142083,0.0217083 -0.0463229,0.0248125 -0.07125,0.00725 L 0.01901042,0.45704167 C -2.5e-4,0.44347917 -0.00573958,0.4175625 0.00644792,0.39894792 L 0.254125,0.02061458 c 0.0121979,-0.018625 0.0395,-0.02603125 0.0613438,-0.01641666 l 0.31925,0.140625 c 0.0282813,0.0124479 0.0401042,0.0403333 0.0258854,0.0620417 l -0.28880212,0.4411458"
         id="path45537" />
      <path
         style="fill:#ffffff;stroke-width:0.01041667"
         inkscape:connector-curvature="0"
         d="M 0.32702083,0.62241667 0.03682292,0.42401042 0.29208333,0.03410417 0.61552083,0.18178125 Z"
         id="path45539" />
      <path
         style="fill:#94989b;stroke-width:0.01041667"
         inkscape:connector-curvature="0"
         d="m 0.51072917,0.15407292 c -0.004073,0.006219 -0.0136667,0.008302 -0.0214062,0.004677 L 0.36723958,0.10142708 C 0.36021875,0.09813542 0.3576875,0.09072917 0.36154167,0.08484375 L 0.3806875,0.05558333 c 0.003854,-0.005875 0.0126979,-0.0080937 0.0197917,-0.0049479 l 0.12367708,0.05490625 c 0.007823,0.003469 0.0109063,0.0113437 0.006833,0.0175729 l -0.0202604,0.0309583"
         id="path45541" />
      <path
         style="fill:#333333;stroke-width:0.01041667"
         inkscape:connector-curvature="0"
         d="M 0.487375,0.11607292 0.40872917,0.080375 0.42814583,0.05071875 C 0.43204167,0.04477083 0.44109375,0.0425 0.44841667,0.0456875 l 0.0522917,0.02269792 c 0.007646,0.0033229 0.010625,0.01101041 0.006625,0.01714583 l -0.02,0.03054167"
         id="path45543" />
      <g
         style="fill:#83bf4f"
         id="g45549">
        <path
           style="stroke-width:0.01041667"
           inkscape:connector-curvature="0"
           d="m 0.493125,0.27683333 -0.16328125,-0.08375 0.008573,-0.0130937 0.163875,0.0829271 z"
           id="path45545" />
        <path
           style="stroke-width:0.01041667"
           inkscape:connector-curvature="0"
           d="m 0.27836458,0.18451042 c -0.001802,0.00101 -0.003781,3.125e-4 -0.004417,-0.001531 l -0.0100417,-0.0295833 c -6.25e-4,-0.001802 5.9375e-4,-0.003656 0.002667,-0.004083 l 0.003812,-8.0208e-4 c 0.002104,-4.375e-4 0.004323,6.9791e-4 0.004958,0.00251 l 0.005303,0.015479 c 6.4584e-4,0.001844 0.002625,0.002521 0.004417,0.0015 l 0.0302604,-0.0170417 c 0.001823,-0.001021 0.004396,-5.5208e-4 0.005729,0.001042 l 0.002427,0.002906 c 0.001344,0.001604 9.2708e-4,0.00376 -8.8542e-4,0.004781 l -0.0442292,0.0248229"
           id="path45547" />
      </g>
      <g
         style="fill:#b0bdc6"
         id="g45563">
        <path
           style="stroke-width:0.01041667"
           inkscape:connector-curvature="0"
           d="M 0.43979167,0.35840625 0.27967708,0.26970833 0.28825,0.25661458 0.44885417,0.34447917 Z"
           id="path45551" />
        <path
           style="stroke-width:0.01041667"
           inkscape:connector-curvature="0"
           d="M 0.24902083,0.2728125 0.20177083,0.24625 0.22903123,0.2045833 0.27682293,0.2303125 Z"
           id="path45553" />
        <path
           style="stroke-width:0.01041667"
           inkscape:connector-curvature="0"
           d="M 0.38635417,0.44 0.22947917,0.3463542 0.23809417,0.3332292 0.39549,0.4260417 Z"
           id="path45555" />
        <path
           style="stroke-width:0.01041667"
           inkscape:connector-curvature="0"
           d="M 0.19927083,0.34878125 0.153,0.32073958 0.1802708,0.27908328 0.2271041,0.30630198 Z"
           id="path45557" />
        <path
           style="stroke-width:0.01041667"
           inkscape:connector-curvature="0"
           d="M 0.3329375,0.5215625 0.17936458,0.4229479 0.18791658,0.4098958 0.34206241,0.5076146 Z"
           id="path45559" />
        <path
           style="stroke-width:0.01041667"
           inkscape:connector-curvature="0"
           d="M 0.14955208,0.42475 0.10427078,0.3952292 0.13151038,0.3535834 0.17739578,0.3822709 Z"
           id="path45561" />
      </g>
    </symbol>
    <symbol
       viewBox="0 0 64 64"
       id="emoji-1f642">
      <title
         id="title53285">1f642</title>
      <circle
         style="fill:#ffdd67;stroke-width:0.01041667"
         cx="0.33333334"
         cy="0.33333334"
         r="0.3125"
         id="circle53287" />
      <g
         style="fill:#664e27"
         id="g53295">
        <path
           style="stroke-width:0.01041667"
           inkscape:connector-curvature="0"
           d="m 0.180375,0.42655208 c 0.0257813,0.0151562 0.0506771,0.0243542 0.0761875,0.0304583 0.0254062,0.006104 0.0510417,0.008708 0.0767604,0.00875 0.0257396,-1.0417e-4 0.0513542,-0.002708 0.0767396,-0.008813 0.0255104,-0.006104 0.0503958,-0.0152813 0.0762083,-0.0303958 C 0.4752187,0.45485368 0.4506875,0.47711408 0.4233541,0.49135368 0.3957083,0.50571828 0.3643749,0.51263488 0.3333437,0.51261408 0.3023125,0.51257292 0.27101042,0.50565625 0.243375,0.49129167 0.21603125,0.47705208 0.1915,0.4548125 0.18035417,0.42655208"
           id="path53289" />
        <circle
           style="stroke-width:0.01041667"
           cx="0.2135625"
           cy="0.27699998"
           r="0.046875"
           id="circle53291" />
        <circle
           style="stroke-width:0.01041667"
           cx="0.45314583"
           cy="0.27699998"
           r="0.046875"
           id="circle53293" />
      </g>
    </symbol>
    <symbol
       viewBox="0 0 64 64"
       id="emoji-1f641">
      <title
         id="title53272">1f641</title>
      <circle
         style="fill:#ffdd67;stroke-width:0.01041667"
         cx="0.33333334"
         cy="0.33333334"
         r="0.3125"
         id="circle53274" />
      <g
         style="fill:#664e27"
         id="g53282">
        <path
           style="stroke-width:0.01041667"
           inkscape:connector-curvature="0"
           d="M 0.444625,0.48958333 C 0.4258646,0.47853123 0.4077396,0.47186453 0.3891875,0.46742713 c -0.0184896,-0.004458 -0.0371458,-0.006344 -0.0558438,-0.006385 -0.0187396,8.333e-5 -0.037375,0.001969 -0.0558437,0.006406 -0.0185521,0.004458 -0.0366667,0.011125 -0.0554375,0.0221354 0.008031,-0.0206146 0.025875,-0.0368021 0.0457917,-0.0471563 0.020125,-0.0104167 0.0429062,-0.0154792 0.0654896,-0.0154583 0.0225625,4.167e-5 0.0453542,0.005062 0.0654479,0.0155 0.0198854,0.010375 0.03775,0.0265417 0.0458333,0.0471146"
           id="path53276" />
        <circle
           style="stroke-width:0.01041667"
           cx="0.21354167"
           cy="0.27699998"
           r="0.046875"
           id="circle53278" />
        <circle
           style="stroke-width:0.01041667"
           cx="0.453125"
           cy="0.27699998"
           r="0.046875"
           id="circle53280" />
      </g>
    </symbol>
    <symbol
       viewBox="0 0 64 64"
       id="emoji-1f464">
      <title
         id="title36436">1f464</title>
      <path
         style="fill:#428bc1;stroke-width:0.01041667"
         inkscape:connector-curvature="0"
         d="m 0.63196875,0.58479167 c -0.003604,-0.00824 -0.1990625,-0.12455209 -0.199375,-0.12471875 -0.0275833,-0.0202812 -0.0309583,-0.04 -0.008698,-0.0513333 0.0364063,-0.0185313 0.0632083,-0.11520833 0.0703854,-0.15645833 0.0535833,-0.30846875 -0.37552083,-0.308625 -0.32198958,0 0.007167,0.0412708 0.0339479,0.13795833 0.0703542,0.15645833 0.0224271,0.0113958 0.0180104,0.0301562 -0.00925,0.0517604 -0.009073,0.007198 -0.135625,0.0777604 -0.17138541,0.10166667 -6.25e-5,2.083e-5 -1.875e-4,1.0416e-4 -1.875e-4,1.0416e-4 h 2.083e-5 c -0.01475,0.009865 -0.02525,0.0180833 -0.02717708,0.0225208 -0.01019792,0.0235 -0.01388542,0.0820104 -0.01388542,0.0820104 h 0.625 c 0,0 -0.003677,-0.0585104 -0.0138646,-0.0820104"
         id="path36438" />
    </symbol>
    <symbol
       viewBox="0 0 64 64"
       id="emoji-2714">
      <title
         id="title67299">2714</title>
      <path
         style="fill:#83bf4f;stroke-width:0.01041667"
         inkscape:connector-curvature="0"
         d="m 0.6,0 -0.41333333,0.45455208 -0.12,-0.0909063 H 0 L 0.18666667,0.66666667 0.66666667,0 Z"
         id="path67301" />
    </symbol>
    <symbol
       viewBox="0 0 64 64"
       id="emoji-2757">
      <title
         id="title67405">2757</title>
      <g
         style="fill:#ed4c5c"
         id="g67411">
        <path
           style="stroke-width:0.01041667"
           inkscape:connector-curvature="0"
           d="m 0.25557292,0.1010625 0.0509375,0.34552083 c 0.005094,0.0344687 0.0485417,0.0344687 0.0536354,0 L 0.41108333,0.1010625 c 0.009344,-0.13475 -0.16486458,-0.13475 -0.15551041,0"
           id="path67407" />
        <ellipse
           style="stroke-width:0.01041667"
           cx="0.33333334"
           cy="0.58791667"
           rx="0.078125"
           ry="0.078739583"
           id="ellipse67409" />
      </g>
    </symbol>
    <symbol
       id="newspaper"
       viewBox="0 0 576 512">
      <title
         id="newspaper-title">Newspaper</title>
      <path
         style="stroke-width:0.01041667"
         inkscape:connector-curvature="0"
         d="M 5.75,0.66666667 H 1.1666667 C 0.94939583,0.66666667 0.76413542,0.80601042 0.69533333,1 H 0.25 C 0.11192708,1 0,1.1119271 0,1.25 V 4.0833333 C 0,4.4055 0.26116667,4.6666667 0.58333333,4.6666667 H 5.75 c 0.1380729,0 0.25,-0.1119271 0.25,-0.25 V 0.91666667 c 0,-0.13807292 -0.1119271,-0.25 -0.25,-0.25 z M 0.5,4.0833333 V 1.5 h 0.16666667 v 2.5833333 c 0,0.045948 -0.0373854,0.083333 -0.0833333,0.083333 C 0.53738542,4.1666667 0.5,4.1292812 0.5,4.0833333 Z m 5,0.083333 H 1.1606458 c 0.0039,-0.027229 0.00602,-0.055031 0.00602,-0.083333 V 1.1666667 H 5.5 Z m -3.7083333,-1.25 h 1.4166666 c 0.069031,0 0.125,-0.055969 0.125,-0.125 v -1 c 0,-0.069031 -0.055969,-0.125 -0.125,-0.125 H 1.7916667 c -0.069031,0 -0.125,0.055969 -0.125,0.125 v 1 c 0,0.069031 0.055969,0.125 0.125,0.125 z M 2.0833333,2.0833333 H 2.9166667 V 2.5 H 2.0833333 Z M 1.6666667,3.5416667 v -0.25 c 0,-0.069031 0.055969,-0.125 0.125,-0.125 h 1.4166666 c 0.069031,0 0.125,0.055969 0.125,0.125 v 0.25 c 0,0.069031 -0.055969,0.125 -0.125,0.125 H 1.7916667 c -0.069031,0 -0.125,-0.055969 -0.125,-0.125 z m 2,0 v -0.25 c 0,-0.069031 0.055969,-0.125 0.125,-0.125 H 4.875 c 0.069031,0 0.125,0.055969 0.125,0.125 v 0.25 c 0,0.069031 -0.055969,0.125 -0.125,0.125 H 3.7916667 c -0.069031,0 -0.125,-0.055969 -0.125,-0.125 z m 0,-1.5 v -0.25 c 0,-0.069031 0.055969,-0.125 0.125,-0.125 H 4.875 c 0.069031,0 0.125,0.055969 0.125,0.125 v 0.25 c 0,0.069031 -0.055969,0.125 -0.125,0.125 H 3.7916667 c -0.069031,0 -0.125,-0.055969 -0.125,-0.125 z m 0,0.75 v -0.25 c 0,-0.069031 0.055969,-0.125 0.125,-0.125 H 4.875 c 0.069031,0 0.125,0.055969 0.125,0.125 v 0.25 c 0,0.069031 -0.055969,0.125 -0.125,0.125 H 3.7916667 c -0.069031,0 -0.125,-0.055969 -0.125,-0.125 z"
         id="path69206" />
    </symbol>
  </defs>
  <sodipodi:namedview
     id="base"
     pagecolor="#ffffff"
     bordercolor="#666666"
     borderopacity="1.0"
     inkscape:pageopacity="0.0"
     inkscape:pageshadow="2"
     inkscape:zoom="0.24059838"
     inkscape:cx="2409.0625"
     inkscape:cy="1866.5865"
     inkscape:document-units="in"
     inkscape:current-layer="layer1"
     showgrid="false"
     units="in"
     borderlayer="true"
     inkscape:window-width="1920"
     inkscape:window-height="1035"
     inkscape:window-x="0"
     inkscape:window-y="23"
     inkscape:window-maximized="0"
     showguides="true"
     inkscape:guide-bbox="true"
     inkscape:snap-global="true">
    <sodipodi:guide
       position="584.2,990.6"
       orientation="0,1"
       id="guide90801"
       inkscape:locked="false"
       inkscape:label=""
       inkscape:color="rgb(0,0,255)" />
    <sodipodi:guide
       position="584.2,76.2"
       orientation="0,1"
       id="guide90803"
       inkscape:locked="false"
       inkscape:label=""
       inkscape:color="rgb(0,0,255)" />
    <sodipodi:guide
       position="76.2,533.4"
       orientation="1,0"
       id="guide90805"
       inkscape:locked="false"
       inkscape:label=""
       inkscape:color="rgb(0,0,255)" />
    <sodipodi:guide
       position="1092.2,533.4"
       orientation="1,0"
       id="guide90807"
       inkscape:locked="false"
       inkscape:label=""
       inkscape:color="rgb(0,0,255)" />
    <sodipodi:guide
       position="584.2,533.4"
       orientation="1,0"
       id="guide90809"
       inkscape:locked="false"
       inkscape:label=""
       inkscape:color="rgb(0,0,255)" />
    <sodipodi:guide
       position="584.2,533.4"
       orientation="0,1"
       id="guide90811"
       inkscape:locked="false"
       inkscape:label=""
       inkscape:color="rgb(0,0,255)" />
    <inkscape:grid
       type="xygrid"
       id="grid90813" />
  </sodipodi:namedview>
  <metadata
     id="metadata5">
    <rdf:RDF>
      <cc:Work
         rdf:about="">
        <dc:format>image/svg+xml</dc:format>
        <dc:type
           rdf:resource="http://purl.org/dc/dcmitype/StillImage" />
        <dc:title />
        <cc:license
           rdf:resource="http://creativecommons.org/licenses/by/4.0/" />
      </cc:Work>
      <cc:License
         rdf:about="http://creativecommons.org/licenses/by/4.0/">
        <cc:permits
           rdf:resource="http://creativecommons.org/ns#Reproduction" />
        <cc:permits
           rdf:resource="http://creativecommons.org/ns#Distribution" />
        <cc:requires
           rdf:resource="http://creativecommons.org/ns#Notice" />
        <cc:requires
           rdf:resource="http://creativecommons.org/ns#Attribution" />
        <cc:permits
           rdf:resource="http://creativecommons.org/ns#DerivativeWorks" />
      </cc:License>
    </rdf:RDF>
  </metadata>
  <g
     inkscape:label="Layer 1"
     inkscape:groupmode="layer"
     id="layer1"
     transform="translate(0,769.80002)">
    <use
       id="use122903"
       transform="matrix(5.08,0,0,5.08,-320.4615,-44.548128)"
       style="fill:#800080;stroke:none"
       xlink:href="#github-square"
       x="0"
       y="0"
       width="100%"
       height="100%" />
    <use
       id="use122928"
       transform="matrix(5.08,0,0,5.08,-100.23686,-326.9361)"
       style="fill:#000000;stroke:none"
       xlink:href="#linux"
       x="0"
       y="0"
       width="100%"
       height="100%" />
    <use
       id="use125783"
       transform="matrix(5.08,0,0,5.08,-323.24884,-151.301)"
       style="fill:#800080;stroke:none"
       xlink:href="#database"
       x="0"
       y="0"
       width="100%"
       height="100%" />
    <g
       id="g159183"
       transform="translate(-47.397022,-17.849015)">
      <rect
         ry="6.3232102"
         y="-128.50096"
         x="168.99551"
         height="50.425163"
         width="36.213234"
         id="rect159156"
         style="opacity:1;vector-effect:none;fill:#ffffff;fill-opacity:1;fill-rule:nonzero;stroke:none;stroke-width:0.57687169;stroke-linecap:round;stroke-linejoin:round;stroke-miterlimit:4;stroke-dasharray:1.15374336, 3.46123005;stroke-dashoffset:3.77952766;stroke-opacity:1;paint-order:markers fill stroke" />
      <g
         style="fill:#666666"
         transform="matrix(0.2,0,0,0.2,31.693069,-114.43804)"
         id="g125820">
        <use
           id="use125808"
           transform="matrix(25.4,0,0,25.4,-4000.7127,-90.507708)"
           style="fill:#666666;stroke:none"
           xlink:href="#file-excel"
           x="0"
           y="0"
           width="100%"
           height="100%" />
      </g>
    </g>
    <g
       id="g126174"
       transform="matrix(1.2282649,0,0,1.2282649,-180.72321,-94.885824)"
       style="fill:#666666">
      <use
         height="100%"
         width="100%"
         y="0"
         x="0"
         xlink:href="#copy"
         style="fill:#666666;stroke:none"
         transform="matrix(5.08,0,0,5.08,-358.52302,26.605965)"
         id="use123311" />
      <text
         id="text126169"
         y="60.894775"
         x="264.53674"
         style="font-style:normal;font-variant:normal;font-weight:normal;font-stretch:normal;font-size:12.69999980999999956px;line-height:100%;font-family:Lato;-inkscape-font-specification:'Lato, Normal';font-variant-ligatures:normal;font-variant-caps:normal;font-variant-numeric:normal;font-feature-settings:normal;text-align:start;letter-spacing:0px;word-spacing:0px;writing-mode:lr-tb;text-anchor:start;fill:#666666;fill-opacity:1;stroke:none;stroke-width:0.26458332000000001px;stroke-linecap:butt;stroke-linejoin:miter;stroke-opacity:1"
         xml:space="preserve"><tspan
           style="font-style:normal;font-variant:normal;font-weight:900;font-stretch:normal;font-size:17.63888930999999971px;font-family:Lato;-inkscape-font-specification:'Lato Heavy';stroke-width:0.26458332000000001px;fill:#666666"
           y="60.894775"
           x="264.53674"
           id="tspan126167"
           sodipodi:role="line">.R</tspan></text>
    </g>
    <use
       id="use126187"
       transform="matrix(5.0800001,0,0,5.0799981,-817.58763,46.953656)"
       style="fill:#666666;stroke:none"
       xlink:href="#file-word"
       x="0"
       y="0"
       width="100%"
       height="100%" />
    <g
       id="g158770"
       transform="translate(-9.1968736,59.933038)">
      <use
         height="100%"
         width="100%"
         y="0"
         x="0"
         xlink:href="#emoji-1f464"
         transform="matrix(2.4380951,0,0,2.4380951,-24.423786,80.032725)"
         id="use158625" />
      <use
         id="use158663"
         transform="matrix(2.4380951,0,0,2.4380951,7.3262143,80.032725)"
         xlink:href="#emoji-1f464"
         x="0"
         y="0"
         width="100%"
         height="100%" />
      <use
         height="100%"
         width="100%"
         y="0"
         x="0"
         xlink:href="#emoji-1f464"
         transform="matrix(2.4380951,0,0,2.4380951,39.076216,80.032725)"
         id="use158665" />
      <use
         height="100%"
         width="100%"
         y="0"
         x="0"
         xlink:href="#emoji-2714"
         transform="matrix(1.3714285,0,0,1.3714285,35.687412,109.96526)"
         id="use158691" />
      <use
         id="use158705"
         transform="matrix(1.3714285,0,0,1.3714285,67.437412,109.96526)"
         xlink:href="#emoji-2714"
         x="0"
         y="0"
         width="100%"
         height="100%" />
      <use
         height="100%"
         width="100%"
         y="0"
         x="0"
         xlink:href="#emoji-2757"
         transform="matrix(1.3714499,0,0,1.3714499,99.186203,110.5129)"
         id="use158737" />
      <use
         id="use158755"
         transform="matrix(1.3714285,0,0,1.3714285,35.687412,130.85918)"
         xlink:href="#emoji-2714"
         x="0"
         y="0"
         width="100%"
         height="100%" />
      <use
         height="100%"
         width="100%"
         y="0"
         x="0"
         xlink:href="#emoji-2714"
         transform="matrix(1.3714285,0,0,1.3714285,67.437412,130.85918)"
         id="use158757" />
      <use
         id="use158759"
         transform="matrix(1.3714285,0,0,1.3714285,99.187413,130.85918)"
         xlink:href="#emoji-2714"
         x="0"
         y="0"
         width="100%"
         height="100%" />
    </g>
    <use
       id="use159128"
       transform="matrix(6.9587476,0,0,6.9587476,256.21863,-55.476131)"
       style="fill:#666666;stroke:none"
       xlink:href="#newspaper"
       x="0"
       y="0"
       width="100%"
       height="100%" />
  </g>
</svg>
